<?xml version="1.0" standalone="no"?>
<!DOCTYPE svg PUBLIC "-//W3C//DTD SVG 1.1//EN" "http://www.w3.org/Graphics/SVG/1.1/DTD/svg11.dtd" >
<svg xmlns="http://www.w3.org/2000/svg" xmlns:xlink="http://www.w3.org/1999/xlink" version="1.1">
<metadata>
Created by FontForge 20170731 at Thu Jul 20 21:09:18 2023
 By Aleksey,,,
 
</metadata>
<defs>
<font id="IsamiRiDisplayBold" horiz-adv-x="1536" >
  <font-face 
    font-family="IsamiRi Display"
    font-weight="500"
    font-stretch="normal"
    units-per-em="2048"
    panose-1="0 0 0 0 0 0 0 0 0 0"
    ascent="1638"
    descent="-410"
    x-height="1555"
    cap-height="1632"
    bbox="-33 -400 2669 2289"
    underline-thickness="50"
    underline-position="-150"
    unicode-range="U+0020-2192"
  />
<missing-glyph horiz-adv-x="2048" 
 />
    <glyph glyph-name=".notdef" horiz-adv-x="2048" 
 />
    <glyph glyph-name=".notdef" horiz-adv-x="2048" 
 />
    <glyph glyph-name=".null" horiz-adv-x="0" 
 />
    <glyph glyph-name="nonmarkingreturn" horiz-adv-x="682" 
 />
    <glyph glyph-name="space" unicode=" " horiz-adv-x="648" 
 />
    <glyph glyph-name="exclam" unicode="!" horiz-adv-x="624" 
d="M95 365l383 -21l74 1337l-384 22zM92 243l-20 -352l384 -22l19 353z" />
    <glyph glyph-name="numbersign" unicode="#" horiz-adv-x="1944" 
d="M478 1344l83 460l378 -68l-71 -392h342l83 460l378 -68l-71 -392h308v-384h-377l-92 -516h361v-384h-430l-83 -460l-378 68l71 392h-342l-83 -460l-378 68l71 392h-212v384h281l92 516h-265v384h334zM799 960l-92 -516h342l92 516h-342z" />
    <glyph glyph-name="dollar" unicode="$" 
d="M603 1509v243h384v-218q234 0 485 -27l-40 -382q-240 25 -445 25v-213q141 -19 236 -53q132 -49 207 -135q94 -109 97 -264q2 -120 -58.5 -209.5t-156.5 -145.5q-126 -74 -325 -106v-276h-384v248q-203 0 -410 24l46 381q179 -21 364 -21v206q-173 18 -276 54
q-131 46 -206 129q-97 107 -97 263q0 126 65 219t168 151q134 75 346 107zM603 1119q-104 -21 -158 -51q-30 -17 -35 -28q-2 -2 -2 -8v-8q16 -12 44 -21q53 -19 151 -30v146zM987 549v-134q87 19 131 47q18 10 25 18q0 4 -0.5 7.5t-0.5 5.5l-1 2q0 1 -1 2q-12 12 -49 26
q-38 14 -104 26zM409 1022z" />
    <glyph glyph-name="percent" unicode="%" 
d="M1446 1428l-324 204l-948 -1506l324 -204zM144 1014h384v372h-384v-372zM1050 132h384v372h-384v-372z" />
    <glyph glyph-name="ampersand" unicode="&#x26;" horiz-adv-x="1596" 
d="M1413 236q27 -27 77 -75l-268 -276q-39 39 -60 59q-132 -97 -295 -125q-238 -41 -511 70q-219 87 -284 257q-60 158 26 342q54 117 177 261q50 59 108 120q-6 10 -9 14q-86 139 -127 251q-55 153 -33 269q16 83 68 146t132 96q121 51 312 28q240 -30 347 -137
q75 -75 87 -178q9 -83 -24 -169q-39 -106 -157 -245q-39 -46 -100 -111q95 -123 249 -296q26 72 38 151l380 -56q-32 -213 -133 -396zM891 227q-162 179 -279 324q-30 -34 -44 -50q-89 -106 -121 -175q-13 -26 -15 -43q25 -21 68 -38q171 -70 301 -48q48 9 90 30zM429 287
l1 -1zM432 280v-1v1zM657 1159q10 11 28 33q39 44 67 87q-36 9 -72 12q-36 5 -82 5l3 -9t3.5 -11t3.5 -10q13 -37 49 -107zM779 1329h-1h1z" />
    <glyph glyph-name="parenleft" unicode="(" horiz-adv-x="804" 
d="M467 -308l315 220q-131 187 -212.5 378.5t-111 357.5t-25 328.5t36 294t82.5 250.5t104 202.5t110 145.5l-284 258q-76 -84 -146.5 -193.5t-135 -260.5t-105 -317t-46.5 -366.5t29.5 -404.5t133.5 -436.5t255 -456.5z" />
    <glyph glyph-name="parenright" unicode=")" horiz-adv-x="804" 
d="M397 -308l-314 220q131 187 212.5 378.5t110.5 357.5t24.5 328.5t-36 294t-82.5 250.5t-104 202.5t-110 145.5l284 258q76 -84 146.5 -193.5t135 -260.5t105 -317t46.5 -366.5t-29.5 -404.5t-133.5 -436.5t-255 -456.5z" />
    <glyph glyph-name="asterisk" unicode="*" horiz-adv-x="1140" 
d="M451 1818l-187 76l-226 -293l384 -516l345 94l10 92l183 -75l144 356l-283 115l24 220l-382 42z" />
    <glyph glyph-name="plus" unicode="+" horiz-adv-x="1368" 
d="M880 848l450 4l4 -384l-450 -4l4 -450l-384 -4l-4 450l-450 -4l-4 384l450 4l-4 450l384 4z" />
    <glyph glyph-name="comma" unicode="," horiz-adv-x="696" 
d="M14 -203l356 -146l216 528l-356 146z" />
    <glyph glyph-name="hyphen" unicode="-" horiz-adv-x="948" 
d="M918 402v384h-870v-384h870z" />
    <glyph glyph-name="period" unicode="." horiz-adv-x="480" 
d="M54 -103l384 14l-12 360l-384 -14z" />
    <glyph glyph-name="slash" unicode="/" horiz-adv-x="1272" 
d="M1255 1505l-338 182l-882 -1644l338 -182z" />
    <glyph glyph-name="zero" unicode="0" horiz-adv-x="1224" 
d="M1016 1453q160 -230 160 -675q0 -462 -213 -686q-96 -101 -214 -138.5t-224 -19.5l-85 37q-44 34 -91 83t-99.5 126t-93 163.5t-68 200.5t-28.5 232q-2 153 49 303t133 275q79 119 166 195q50 43 100 69q63 33 128 37q104 9 205 -43t175 -159zM670 1267q-2 -1 -5 -4
t-5 -4q-49 -44 -97 -116q-120 -184 -119 -363q2 -147 57.5 -266.5t126.5 -195.5q31 12 56 38q108 113 108 422q0 322 -91 456q-16 22 -31 33zM660 1273q0 -1 1 -1zM662 1272l-13 -1q9 0 13 1zM685 1277z" />
    <glyph glyph-name="one" unicode="1" horiz-adv-x="756" 
d="M318 983l-276 176l306 480l354 -103v-1572h-384v1019z" />
    <glyph glyph-name="two" unicode="2" horiz-adv-x="1104" 
d="M651 1326q-76 -30 -171 -92t-177 -131l-246 296q251 206 460 287q174 68 306 26q103 -34 159 -122q49 -77 56 -183q9 -144 -65 -369q-59 -178 -164 -394q-96 -196 -210 -395h433v-384h-774l-161 296q208 325 366 650q95 196 146 348q32 96 42 167zM653 1394z" />
    <glyph glyph-name="three" unicode="3" horiz-adv-x="1128" 
d="M513 1336l-216 -284l35 -268q168 -131 283 -265q123 -143 142 -234l1 -30l-1 -1q-2 -3 -4 -5q-4 -5 -24 -19q-132 -77 -493 -74l-4 -384q472 -3 694 129q131 79 186 205q49 118 21 256q-39 189 -226 408q-85 97 -193 196l381 502l-177 307l-858 -108l48 -381z" />
    <glyph glyph-name="four" unicode="4" horiz-adv-x="1104" 
d="M53 765l177 -237l375 -19l-76 -636l382 -46l144 1212l-382 46l-23 -194l-169 9l180 735l-374 90z" />
    <glyph glyph-name="five" unicode="5" horiz-adv-x="1224" 
d="M185 1571l207 156l742 -71l-36 -383l-567 55l-55 -301q213 -53 364 -142q116 -68 194 -166t84 -224q5 -131 -72 -236.5t-203 -182.5q-237 -145 -675 -229l-72 378q366 69 547 179q70 42 89 77q-16 31 -87 74q-149 88 -422 132l-159 224zM735 486h-1h1z" />
    <glyph glyph-name="six" unicode="6" horiz-adv-x="1272" 
d="M326 1381q117 121 254.5 212.5t256.5 142.5l153 -352q-88 -38 -194 -108.5t-195 -161.5q-99 -102 -152 -211q166 24 302 8q184 -22 307 -114q155 -115 191 -322q31 -181 -24 -323q-53 -137 -175 -219q-93 -64 -203 -85.5t-206 -13.5l-6 1q-61 7 -126 31.5t-135 67
t-132 110t-112.5 153t-82 204.5t-35.5 256q-10 392 314 724zM417 506q16 -64 44 -115.5t57.5 -81.5t62.5 -51.5t55.5 -29.5t41.5 -11q97 -7 156 33q23 16 33 40q17 45 3 121q-8 53 -42 79q-41 31 -121 40q-121 15 -290 -24z" />
    <glyph glyph-name="seven" unicode="7" horiz-adv-x="1164" 
d="M684 1307l-577 -1301l350 -156l690 1554l-164 270l-912 54l-22 -384z" />
    <glyph glyph-name="eight" unicode="8" horiz-adv-x="1164" 
d="M312 1616q155 112 323 112q97 0 182.5 -42.5t149.5 -110.5q131 -139 156 -324q29 -218 -99 -391q-44 -59 -105 -109q49 -55 84 -117q104 -186 51 -386q-46 -170 -187 -286q-144 -118 -310 -118q-171 0 -325 142q-139 129 -188 303q-61 219 53 401q40 66 105 123
q-52 58 -88 130q-95 195 -18 396q61 166 216 277zM578 993q95 39 137 95q36 51 27 111q-8 62 -54 112q-32 33 -53 33q-44 0 -99 -39q-60 -45 -81 -101q-18 -48 4 -92q29 -60 119 -119zM538 573q-85 -38 -115 -86q-24 -39 -9 -95q19 -71 79 -124q35 -33 63 -40h1q28 0 66 31
q45 36 60 88q13 51 -15 100q-38 67 -130 126z" />
    <glyph glyph-name="nine" unicode="9" horiz-adv-x="1224" 
d="M287 1662q133 81 312 63q195 -21 323 -107q131 -87 196 -243q25 -59 42 -126.5t27 -157.5t13.5 -143.5t9.5 -163.5q0 -4 0.5 -13t0.5 -13q14 -268 -78 -457q-89 -184 -267 -288q-254 -147 -677 -114l30 382q305 -23 454 64q76 45 114 122q12 26 20 51
q-155 -6 -292.5 38.5t-231 120t-153 167t-74.5 185.5v5q-6 59 -8 123t13.5 146t46.5 150q61 137 179 209zM818 903q-15 232 -53 321q-23 52 -58 75q-48 33 -148 44q-51 4 -71 -9q-17 -10 -31 -39q-37 -87 -21 -206q3 -13 16 -35.5t44 -52t72 -53.5t107.5 -38t142.5 -7z" />
    <glyph glyph-name="colon" unicode=":" horiz-adv-x="480" 
d="M-12 1289l384 14l12 -336l-384 -14zM-1 606h384v-365h-384v365z" />
    <glyph glyph-name="less" unicode="&#x3c;" horiz-adv-x="1140" 
d="M469 713l647 -562l-252 -290l-822 714l7 296l822 648l238 -302z" />
    <glyph glyph-name="equal" unicode="=" horiz-adv-x="1368" 
d="M45 783l6 384l1284 -18l-6 -384zM56 186l-15 384l1283 48l15 -384z" />
    <glyph glyph-name="greater" unicode="&#x3e;" horiz-adv-x="1152" 
d="M689 713l-647 -562l252 -290l822 714l-7 296l-822 648l-238 -302z" />
    <glyph glyph-name="question" unicode="?" horiz-adv-x="1044" 
d="M438 1237q35 29 66 34q30 4 65 -15q60 -32 89 -63q13 -15 13 -22q7 -32 -36 -122q-21 -47 -66 -127v-1q-53 -99 -82 -160q-105 -219 -117 -414l383 -25q8 123 81 275q18 38 73 142q2 4 3 5q65 125 73 142q98 209 63 367q-44 206 -294 341q-152 83 -310 56
q-128 -21 -242 -111q-83 -65 -143.5 -151t-89.5 -157l354 -147q13 32 45.5 77t71.5 76zM341 -35l383 -26l21 313l-384 25z" />
    <glyph glyph-name="at" unicode="@" horiz-adv-x="1704" 
d="M980 1259q-244 -192 -372 -344.5t-163 -261.5q-23 -73 -5 -123q17 -46 79 -92q151 -110 466 -141q304 -31 566 33l90 -373q-326 -79 -694 -42q-413 39 -654 212q-155 114 -213 269q-64 174 -1 373q116 364 682 807q65 50 156 62q76 12 156 0q192 -27 331 -154
q113 -103 165 -250t36.5 -350t-106.5 -444l-346 -28l-145 249l-142 -193l-309 228l316 428l320 -17l23 -39q-19 83 -71 133q-52 47 -125 57q-24 3 -40 1zM970 1258h2h-2z" />
    <glyph glyph-name="A" unicode="A" horiz-adv-x="1344" 
d="M419 1581l368 18l528 -1530l-362 -126l-108 313l-334 58l-84 -353l-374 90zM601 688l100 -17l-62 180z" />
    <glyph glyph-name="B" unicode="B" horiz-adv-x="1176" 
d="M1026 834q117 -115 135 -300q19 -205 -82 -343q-90 -123 -256 -171q-195 -58 -511 -11l-149 21l-128 1340l132 54q257 105 455 112q164 4 273 -59q155 -90 184 -275q35 -219 -53 -368zM445 1116l16 -167l10 2.5t9 1.5q2 0 3 1q8 1 24 5q92 19 136 36q44 18 52 34
q18 30 5 112q0 3 -1 5q-19 7 -64 6q-81 -3 -190 -36zM698 1151zM499 554l17 -180q122 -8 199 14q40 13 54 30q15 22 10 78q-5 52 -23 64q-15 15 -62 19q-77 8 -195 -25z" />
    <glyph glyph-name="C" unicode="C" horiz-adv-x="1356" 
d="M474 1471q-215 -83 -325 -264q-118 -189 -113 -481q6 -300 198 -489q152 -151 401 -207q190 -43 394 -25q196 16 297 71l-180 339h-1q-9 -5 -40 -12q-49 -10 -107 -16q-146 -12 -279 18q-140 32 -215 105q-81 80 -84 223q-3 180 56 273q42 70 135 106q169 66 569 20
l43 381q-101 12 -180 17t-183.5 5.5t-202.5 -16t-183 -48.5z" />
    <glyph glyph-name="D" unicode="D" horiz-adv-x="1320" 
d="M1221 1168q105 -189 90 -467q-8 -126 -50 -233.5t-108.5 -185t-141.5 -131.5t-162 -92q-143 -63 -309 -79q-160 -15 -258 23l-107 42l-176 1479l207 8q210 9 387.5 -7t327.5 -85q199 -90 300 -272zM430 1151l93 -787q93 12 174 47q218 95 230 312q10 166 -42 259
q-39 71 -125 110q-116 52 -330 59z" />
    <glyph glyph-name="E" unicode="E" horiz-adv-x="1128" 
d="M462 1151l16 -242l310 42l51 -381l-336 -45l9 -142l536 31l22 -383l-915 -54l-48 702l-52 838l951 43l17 -384z" />
    <glyph glyph-name="F" unicode="F" horiz-adv-x="1128" 
d="M444 1150l18 -297h368v-384h-340l35 -454l-383 -30l-51 662l-55 869l987 44l18 -384z" />
    <glyph glyph-name="G" unicode="G" horiz-adv-x="1452" 
d="M563 1594q-270 -49 -409 -264q-144 -223 -113 -597q39 -457 290 -680q118 -104 262 -139.5t288 -10.5q134 23 252.5 94.5t197.5 178.5q56 77 85 164t25 188.5t-48 199.5l-48 105l-601 43l-27 -383l336 -24q-7 -33 -32 -65q-33 -45 -88 -78.5t-119 -44.5q-133 -24 -229 60
q-136 122 -161 424q-20 243 53 357q48 75 155 95q119 21 280.5 -18t309.5 -113l172 343q-84 43 -175.5 77.5t-208 64.5t-223.5 35t-224 -12z" />
    <glyph glyph-name="H" unicode="H" horiz-adv-x="1404" 
d="M72 1541l52 -1571l383 12l-19 594l443 13l20 -595l383 13l-51 1571l-384 -12l19 -594l-443 -13l-19 595z" />
    <glyph glyph-name="I" unicode="I" horiz-adv-x="552" 
d="M120 -4l384 8l-36 1536l-384 -8z" />
    <glyph glyph-name="J" unicode="J" horiz-adv-x="1416" 
d="M993 684q-12 -207 -70 -311q-41 -76 -114 -82q-228 -19 -314 84q-30 37 -42 85t-8 89l-382 37q-11 -108 19.5 -230t115.5 -225q102 -123 264 -182t378 -41q143 11 248.5 85.5t170.5 193.5q100 182 118 475q13 227 -20.5 483.5t-88.5 474.5l-372 -96q49 -192 78.5 -420
t18.5 -420z" />
    <glyph glyph-name="K" unicode="K" horiz-adv-x="1812" 
d="M448 952q158 -44 281 -24q120 21 199 108q75 82 113.5 209.5t38.5 253.5h384q-1 -183 -60 -379t-193 -343q-4 -5 -13 -14.5t-14 -14.5q116 -56 215 -130q173 -130 275.5 -295.5t110.5 -314.5l-383 -19q-2 29 -21.5 74t-75.5 116t-137 131q-274 207 -700 212l22 -496
l-384 -17l-35 792l-35 726l384 18z" />
    <glyph glyph-name="L" unicode="L" horiz-adv-x="1392" 
d="M75 1310q0 25 1.5 107t1.5 119h384q0 -43 -1.5 -135t-1.5 -112q-6 -368 1 -555q6 -205 29 -323q2 -7 4 -19q121 -10 324 -8q297 5 479 28l48 -381q-199 -26 -522 -31q-333 -4 -470 24q-120 23 -185 148q-34 64 -54 163q-28 139 -37 386q-6 156 -1 589zM507 350z" />
    <glyph glyph-name="M" unicode="M" horiz-adv-x="1920" 
d="M1422 895v-895h384v1488l-348 112l-549 -759l-444 745l-357 -98v-1488h384v791l237 -397l321 -14z" />
    <glyph glyph-name="N" unicode="N" horiz-adv-x="1644" 
d="M1627 215q-4 -41 -13 -79.5t-29 -83.5t-48 -81t-73 -66t-102 -44q-118 -30 -248 32q-89 42 -185 131q-155 144 -329 400q-51 74 -113 171l38 -583l-383 -24l-94 1442l365 95q99 -207 233.5 -446.5t270.5 -437.5q150 -221 272 -335q31 -28 57 -46q11 111 -31 313
q-77 371 -258 805l355 148q196 -477 279 -876q55 -262 36 -435zM1236 209q0 1 2 4q-4 -4 -2 -4zM1290 235h1h-1z" />
    <glyph glyph-name="O" unicode="O" 
d="M240 1382q100 117 239.5 173.5t297.5 52.5q153 -4 274.5 -38.5t219.5 -133.5q98 -98 153.5 -253t85.5 -381q64 -483 -166 -711q-197 -195 -590 -173q-313 18 -493 235q-175 209 -199 596q-23 397 178 633zM532 1132q-102 -117 -86 -360q16 -259 110 -374q74 -88 220 -96
q221 -13 298 62q94 94 55 388q-44 328 -130 414q-27 27 -77 41t-155 17q-153 4 -235 -92z" />
    <glyph glyph-name="P" unicode="P" horiz-adv-x="1308" 
d="M491 455l28 -443l-384 -24l-87 1377l158 201q86 16 180.5 24t212 4.5t216.5 -24.5q193 -39 311 -144q157 -143 145 -364q-5 -82 -30 -155.5t-62.5 -128.5t-88.5 -101.5t-103 -78.5t-110 -57q-173 -73 -386 -86zM443 1209l23 -371q145 7 260 56q155 67 162 190
q2 38 -19 56q-40 36 -132 54q-120 26 -294 15z" />
    <glyph glyph-name="Q" unicode="Q" horiz-adv-x="1788" 
d="M1168 1570q289 -115 463 -543q172 -419 17 -684l139 -120l-251 -290l-180 155q-65 -33 -168 -72q-328 -124 -577 -69q-169 36 -295 152t-195 311q-138 389 -52 661q100 317 478 460q367 139 621 39zM1337 612q7 101 -61 270q-113 277 -250 331q-117 45 -343 -41
q-204 -77 -247 -217q-48 -150 47 -417q37 -105 89.5 -153t119.5 -63q135 -29 340 46l-114 99l251 290z" />
    <glyph glyph-name="R" unicode="R" horiz-adv-x="1248" 
d="M457 319q8 -177 18 -294l-382 -35q-18 187 -26.5 510t-7 527.5t2.5 286.5l6 123l115 46q123 49 271.5 76t286.5 9q191 -26 311 -140q142 -135 156 -362q15 -222 -103 -383q-90 -122 -242 -189l319 -240l-231 -307zM444 1164q0 -212 1 -350q133 -19 246 24q72 27 104 72
q36 50 30 131q-4 78 -38 109q-28 28 -96 37q-106 14 -247 -23z" />
    <glyph glyph-name="S" unicode="S" horiz-adv-x="1080" 
d="M597 1537q184 42 383 34l-16 -384q-144 6 -281 -25q-123 -29 -178 -74q-3 -4 -7 -8l-4 -4v-1q17 -69 166 -189q151 -120 234 -224q96 -119 117 -232q26 -142 -54 -253q-60 -84 -172 -134q-137 -62 -366 -76q-165 -10 -299 7l48 381q106 -11 229 -5q143 9 221 39
q-15 22 -23 32q-60 74 -175 165q-250 201 -299 398q-29 118 10 220t124 175q123 107 342 158zM492 1074z" />
    <glyph glyph-name="T" unicode="T" horiz-adv-x="1296" 
d="M852 1183v-1183h-384v1165l-363 -17l-18 384l1128 52l18 -384z" />
    <glyph glyph-name="U" unicode="U" horiz-adv-x="1524" 
d="M1462 991q-44 226 -194 566q-16 35 -23 52l-355 -146q16 -39 33 -77q125 -282 162 -469q70 -352 -123 -479q-195 -129 -291 -96q-75 28 -133 186q-118 321 -88 999l-384 18q-34 -754 111 -1149q119 -327 364 -415q276 -99 632 136q98 64 165 150.5t99.5 174t43.5 188.5
t5 186t-24 175z" />
    <glyph glyph-name="V" unicode="V" horiz-adv-x="1656" 
d="M1629 1569l-354 150l-501 -1180l-338 1120l-368 -111l492 -1628l361 -19z" />
    <glyph glyph-name="W" unicode="W" horiz-adv-x="1956" 
d="M1817 260q56 164 79 423q31 394 -14 871l-382 -36q42 -443 13 -803q-17 -208 -59 -331q-7 -20 -14.5 -36.5t-13 -26.5t-9.5 -16.5t-7 -9.5l-3 -3q-18 -6 -24 -3q-1 0 -1 1q-22 8 -54 54q-72 104 -109 285q10 263 -44 534l-377 -73q48 -242 37 -465q-9 -178 -55 -267
q-19 -33 -32 -41q-10 -8 -32 -9q-6 0 -13 6q-23 15 -48 57q-64 102 -112 317q-81 368 -75 845l-384 6q-6 -526 84 -934q60 -275 160 -437q67 -107 164.5 -176t227.5 -67q199 1 330 151q78 -93 178 -138q160 -70 330 1q175 74 259 321z" />
    <glyph glyph-name="X" unicode="X" horiz-adv-x="1488" 
d="M512 763l-459 582l302 238l389 -494l372 522l312 -222l-436 -615l479 -607l-302 -238l-409 519l-364 -511l-312 222z" />
    <glyph glyph-name="Y" unicode="Y" horiz-adv-x="1296" 
d="M720 1132l-411 445l-282 -261l525 -567l-322 -732l352 -154l686 1560l-352 154z" />
    <glyph glyph-name="Z" unicode="Z" horiz-adv-x="1380" 
d="M770 1166l-726 -928l176 -308l1004 127l-48 381l-542 -69l717 917l-171 309l-1068 -111l40 -382z" />
    <glyph glyph-name="backslash" unicode="\" horiz-adv-x="1272" 
d="M35 1505l338 182l882 -1644l-338 -182z" />
    <glyph glyph-name="asciicircum" unicode="^" horiz-adv-x="1248" 
d="M629 1178l286 -341l294 246l-432 516l-293 1l-438 -516l292 -248z" />
    <glyph glyph-name="a" unicode="a" horiz-adv-x="1368" 
d="M327 1467l360 62l707 -1356l-340 -178l-193 371h-303l-44 -309l-380 54zM613 750h47l-37 72z" />
    <glyph glyph-name="b" unicode="b" horiz-adv-x="1320" 
d="M1052 1393q180 -100 213 -259q21 -98 -14 -179t-100 -139q-5 -5 -15 -13q108 -80 130 -199q29 -162 -121 -304q-79 -76 -231 -158q-217 -116 -500 -205l-249 169l-92 1234l178 206q94 6 238.5 -7.5t280.5 -44.5q171 -40 282 -101zM487 955q168 35 284 80q43 17 73 33
q-62 30 -161 52q-95 23 -211 35zM897 1034v1v-1zM516 558l13 -172q117 49 204 94q46 26 83 49q-17 5 -48 10q-117 21 -252 19zM909 493q0 1 -2 2zM894 593l3 3z" />
    <glyph glyph-name="c" unicode="c" horiz-adv-x="1524" 
d="M1349 1332q-203 211 -629 190q-229 -11 -386 -100.5t-233 -246.5q-113 -229 -33 -541q60 -236 191 -390q211 -244 553 -244q136 0 252.5 36.5t194.5 94t134 130.5t81.5 144.5t25.5 136.5h-384q0 2 -1 0q-1 -1 -1 -3q-6 -14 -12.5 -26t-30 -38t-53.5 -44t-84.5 -32.5
t-121.5 -14.5q-166 0 -261 110q-73 85 -111 235q-45 173 6 278q59 121 292 132q252 12 334 -73q41 -43 44 -134l384 14q-8 236 -151 386z" />
    <glyph glyph-name="d" unicode="d" horiz-adv-x="1404" 
d="M73 1548l200 -7q117 -4 262 -39.5t285 -104.5q170 -85 307.5 -220.5t215.5 -327.5q100 -245 -27 -447q-94 -151 -312 -248q-158 -69 -354 -102t-369 -36l-194 -4zM461 1124l6 -711q232 28 383 93q107 47 141 100q23 35 -4 99q-91 225 -339 348q-88 44 -187 71z" />
    <glyph glyph-name="e" unicode="e" horiz-adv-x="1140" 
d="M252 1555l-180 -192v-1231l197 -192l840 24l-10 384l-643 -18v211l633 30l-18 384l-615 -30v258l636 41l-24 384z" />
    <glyph glyph-name="f" unicode="f" horiz-adv-x="1116" 
d="M49 1365l106 -1380l383 30l-40 519h570v384h-600l-21 270h621v384h-828z" />
    <glyph glyph-name="g" unicode="g" horiz-adv-x="1368" 
d="M1321 1266q-16 29 -25 43.5t-32 48.5t-54 64t-69 56q-177 122 -462 118q-62 -1 -108 -4.5t-108 -17t-109.5 -36t-96.5 -64t-84 -98.5q-68 -112 -93 -301q-20 -151 -20 -418q0 -572 326 -732q135 -67 323 -54q131 10 297 59q179 50 269 187q74 112 74 263q0 135 -62 314
q-3 12 -6 18l-41 137h-529v-384h243q11 -44 11 -85q0 -36 -11 -52q-5 -15 -53 -29q-133 -38 -220 -45q-82 -5 -126 15q-16 8 -30.5 24.5t-35 55.5t-33 118.5t-12.5 189.5q0 243 17 368q13 106 39 149q1 1 1 2q20 34 183 36q165 2 237 -49q30 -21 61 -78l340 179z" />
    <glyph glyph-name="h" unicode="h" horiz-adv-x="1440" 
d="M849 975l-342 -10l-51 640l-383 -30l131 -1644l383 30l-50 621l359 10l80 -649l381 47l-199 1619l-381 -47z" />
    <glyph glyph-name="i" unicode="i" horiz-adv-x="552" 
d="M136 35l384 21l-76 1441l-384 -20z" />
    <glyph glyph-name="j" unicode="j" horiz-adv-x="1452" 
d="M1044 596q-4 -181 -60 -249q-43 -51 -164 -28q-226 44 -331 90q-29 12 -51 26q18 38 71 112l-310 226q-91 -126 -124 -211q-62 -163 11 -300q68 -126 251 -206q151 -65 411 -114q165 -31 301.5 8t229.5 152q141 169 149 485q5 231 -54 504.5t-144 509.5l-361 -130
q76 -212 127.5 -450.5t47.5 -424.5z" />
    <glyph glyph-name="k" unicode="k" horiz-adv-x="1620" 
d="M485 1034l-17 479l-384 -14l54 -1548l384 14l-14 386l823 -481l194 332l-843 492l732 670l-260 284z" />
    <glyph glyph-name="l" unicode="l" horiz-adv-x="1392" 
d="M69 1629l85 -1744l1215 119l-37 382l-814 -79l-66 1340z" />
    <glyph glyph-name="m" unicode="m" horiz-adv-x="1956" 
d="M72 1428v-886h384v238l399 -615l345 47l154 490l175 -746l374 88l-335 1428l-370 14l-242 -771l-531 818z" />
    <glyph glyph-name="n" unicode="n" horiz-adv-x="1632" 
d="M84 1531l41 -1536l384 10l-24 917l716 -987l347 119l-47 1488l-384 -12l27 -864l-713 983z" />
    <glyph glyph-name="o" unicode="o" horiz-adv-x="1764" 
d="M240 1337q210 259 621 259q185 0 337 -39.5t268 -141.5q237 -210 250 -671q11 -464 -244 -654q-59 -44 -128.5 -72.5t-145.5 -41t-135.5 -16.5t-135.5 -4q-357 0 -576 137q-149 94 -228 247t-75 360q9 411 192 637zM538 1095q-101 -124 -106 -403q-4 -195 123 -273
q124 -79 372 -79q239 0 316 57q96 74 89 336q-9 296 -120 394q-96 85 -351 85q-229 0 -323 -117z" />
    <glyph glyph-name="p" unicode="p" horiz-adv-x="1260" 
d="M501 433q39 -201 91 -380l-369 -106q-69 240 -117.5 513t-45.5 496q4 306 121 461q88 118 225 146q125 27 276 -29q289 -108 428 -275q78 -93 103.5 -199t-11.5 -224q-35 -102 -115.5 -178.5t-189.5 -126.5q-171 -79 -396 -98zM448 814q172 12 288 65q37 17 62 36.5
t32 29.5t9 16t1 10q-7 21 -25 42q-72 88 -268 161q-27 11 -48 13q-5 1 -10 1h-1q-41 -55 -44 -238q0 -73 4 -136zM491 1191z" />
    <glyph glyph-name="q" unicode="q" horiz-adv-x="1716" 
d="M1301 112q-155 -78 -362 -112q-423 -68 -650 62q-126 73 -183.5 190t-57.5 254q0 202 117 467q92 206 232 404l13 17q66 75 147.5 119t165.5 54t165 -1.5t160 -43.5q145 -57 273.5 -169.5t214.5 -253.5q44 -72 74.5 -148t47 -160t9 -173.5t-41.5 -172.5q-12 -29 -27 -57
q31 -10 52 -10v-384q-147 0 -305 91q-8 5 -22.5 14t-21.5 13zM986 402q-117 137 -202 278l328 200q70 -116 171 -234q10 114 -74 252q-56 91 -138 162.5t-165 105.5q-132 52 -202 -20q-113 -161 -188 -330q-84 -188 -84 -310q0 -49 12.5 -73.5t36.5 -37.5q108 -63 395 -16
q51 9 110 23z" />
    <glyph glyph-name="r" unicode="r" horiz-adv-x="1320" 
d="M471 359l5 -356l-384 -6l-20 1344l129 184q246 86 510 29q122 -26 229.5 -83t175.5 -144q86 -112 85 -242q-1 -137 -97 -255q-104 -130 -321 -234l417 -361l-252 -290zM458 1190l5 -311q264 94 341 191q10 14 12 17l-3 3q-19 23 -65.5 48.5t-116.5 40.5q-85 17 -173 11z
M818 1083zM817 1091l1 1q-1 0 -1 -1z" />
    <glyph glyph-name="s" unicode="s" horiz-adv-x="1176" 
d="M436 1500q-174 -68 -269 -190q-121 -157 -91 -366q19 -131 91 -222q66 -85 174 -130q112 -44 310 -47q9 0 13 -1q87 -2 110 -5q3 0 9 -0.5t9 -1.5q0 -2 -1 -6t-1 -6q-10 -90 -51 -131q-34 -33 -100 -42q-76 -11 -171.5 7t-176.5 53l-150 -354q120 -51 267 -78.5t286 -7.5
q187 26 312 146q140 134 166 362q16 134 -28 232q-49 109 -157 162q-68 34 -170 47q-47 5 -141 7h-4q-149 5 -187 21q-11 3 -16 9q-7 7 -13 41q-7 46 15 76q31 39 107 69q82 33 190 46t205 9l17 384q-129 5 -277.5 -13.5t-276.5 -69.5z" />
    <glyph glyph-name="t" unicode="t" horiz-adv-x="1200" 
d="M804 1250v-1250h-384v1214l-330 -31l-36 382l1080 102l36 -382z" />
    <glyph glyph-name="u" unicode="u" horiz-adv-x="1452" 
d="M110 1449q-16 -115 -24 -186t-17.5 -185.5t-8.5 -217.5t12 -196q32 -280 169 -461q168 -222 474 -272q164 -26 299 16.5t228 152.5q143 167 171 472q7 72 8.5 152t-3.5 162.5t-11 152t-17 153.5t-18.5 133t-18.5 121q-7 39 -8 51l-379 -58l6 -45q12 -77 18.5 -121.5
t17.5 -124.5t16 -139.5t10 -132.5t4 -140t-7 -127q-18 -185 -81 -260q-50 -59 -173 -39q-154 26 -231 125q-72 95 -93 274q-9 75 -9.5 156.5t8 182.5t15.5 160.5t22 177.5q6 43 16 127l-381 46q-1 -10 -14 -110z" />
    <glyph glyph-name="v" unicode="v" horiz-adv-x="1632" 
d="M909 -4q-63 -42 -131 -44q-74 -2 -141 42q-36 24 -72 66q-43 50 -93 145q-76 147 -165 393q-146 403 -276 888l370 100q127 -471 267 -857q60 -166 112 -279q62 112 144 296q178 404 335 854l362 -128q-169 -481 -346 -882q-115 -257 -196 -390q-53 -88 -101 -142
q-35 -39 -69 -62zM861 305z" />
    <glyph glyph-name="w" unicode="w" horiz-adv-x="2292" 
d="M2260 1471l-368 106l-331 -1139l-351 606l-336 -6l-266 -502l-179 1021l-378 -66l276 -1572l359 -57l365 690l403 -696l350 43z" />
    <glyph glyph-name="x" unicode="x" horiz-adv-x="1260" 
d="M418 29q121 276 209 449q135 -267 180 -513l378 70q-74 398 -332 827q195 281 397 401l-196 330q-229 -136 -431 -396q-157 203 -318 365l-274 -268q200 -205 365 -437q-139 -239 -330 -674q-3 -6 -31 -71l350 -156q22 48 33 73z" />
    <glyph glyph-name="y" unicode="y" horiz-adv-x="1272" 
d="M854 1076q-190 12 -307 160q-56 70 -88 156t-40 159l-382 -40q13 -121 64 -258.5t144 -255.5q193 -243 494 -294q-68 -135 -168 -214q-138 -112 -343 -117l11 -384q335 10 572 201q201 161 316 438q91 219 117.5 467.5t6.5 460.5l-382 -38q21 -217 -15 -441z" />
    <glyph glyph-name="z" unicode="z" horiz-adv-x="1680" 
d="M884 1153q-314 -72 -702 -232l-148 354q420 174 765 252q237 53 380 44q110 -8 186 -48q119 -65 147 -192q25 -115 -36 -248q-41 -88 -124 -192q-115 -143 -349 -361q-93 -86 -148 -135q-15 -14 -43 -40q5 0 17 1.5t18 2.5q322 38 724 118l74 -377q-419 -83 -752 -122
q-218 -26 -345 -26q-83 0 -143 12q-47 11 -84 32q-76 42 -102 122q-27 80 12 168q16 37 49 80q40 51 124 133q53 52 200 187q16 14 44 39.5t50.5 46.5t42.5 39q217 202 311 320q32 41 41 56q-89 -6 -209 -34zM487 340zM1136 1267z" />
    <glyph glyph-name="iacute" unicode="&#xed;" horiz-adv-x="708" 
d="M681 1999l-270 274l-366 -360l270 -274zM516 1505l-384 -10l42 -1494l384 10z" />
    <glyph glyph-name="ccaron" unicode="&#x10d;" horiz-adv-x="1416" 
d="M861 1699l-169 1l-465 228l170 344l381 -186l386 187l168 -346zM1393 1461l-122 -364q-93 31 -194 51t-212.5 27t-201.5 -12q-127 -24 -189 -92q-70 -78 -66 -235q5 -232 90 -345q63 -84 180 -113q61 -16 133 -18.5t153.5 7.5t142.5 21.5t148 30.5l82 -375l-9 -2
q-92 -21 -156 -32.5t-173 -25t-214.5 -8.5t-200.5 29q-253 64 -395 258q-156 211 -165 564q-6 311 164 500q148 165 402 213q100 19 213 20t219 -14t197.5 -36t173.5 -49z" />
    <glyph glyph-name="scaron" unicode="&#x161;" horiz-adv-x="1200" 
d="M197 1918l218 316l194 -133l178 130l226 -310l-288 -210l-222 -3zM1105 1553l-86 -374q-106 24 -216.5 31t-220.5 -11q-83 -17 -114 -48q-21 -21 -17 -73q3 -42 15 -61.5t34 -32.5q47 -29 204 -65q8 -2 12 -2q63 -15 97.5 -24t98.5 -36t108 -60q95 -73 131 -183
q36 -105 14 -241q-38 -222 -212 -333q-136 -87 -331 -87q-144 -1 -293 39t-259 94l172 344q73 -37 179 -65.5t198 -27.5q85 0 127 26q31 21 40 73q6 35 2 55q-1 0 -2 1q-28 21 -167 53q-4 1 -14 3q-62 14 -98.5 23.5t-99.5 33.5t-110 53q-209 130 -229 391q-18 227 129 374
q112 112 309 152q97 20 213 20.5t208.5 -11.5t177.5 -31z" />
    <glyph glyph-name="zcaron" unicode="&#x17e;" horiz-adv-x="1272" 
d="M681 1743l-152 1l-438 192l154 352l362 -159l374 160l150 -354zM80 1206l-16 384l1022 42l167 -300l-678 -1001l658 52l30 -382l-1056 -84l-174 299l688 1017z" />
    <glyph glyph-name="uni401" unicode="&#x401;" horiz-adv-x="1236" 
d="M167 1669h384v275h-384v-275zM659 1669h384v275h-384v-275zM95 1544l54 -865l45 -673l944 -101l40 382l-622 67l-10 146h384v384h-409l-16 241l541 -44l32 382z" />
    <glyph glyph-name="uni410" unicode="&#x410;" horiz-adv-x="1344" 
d="M419 1581l368 18l528 -1530l-362 -126l-108 313l-334 58l-84 -353l-374 90zM601 688l100 -17l-62 180z" />
    <glyph glyph-name="uni411" unicode="&#x411;" horiz-adv-x="1344" 
d="M278 1565l804 43l20 -384l-611 -32l10 -194q180 32 338 -7q160 -41 263 -148q119 -122 151 -315q35 -214 -84 -371q-93 -123 -271 -189q-89 -32 -196.5 -48t-194 -15.5t-166.5 6.5l-173 180l-72 1271zM523 611l19 -322q134 7 224 40q71 25 96 59q21 25 12 78
q-12 73 -47 110q-29 29 -81 42q-97 24 -223 -7z" />
    <glyph glyph-name="uni412" unicode="&#x412;" horiz-adv-x="1176" 
d="M1045 885q131 -119 151 -323q22 -215 -86 -361q-95 -129 -272 -179q-208 -61 -551 -12l-150 21l-138 1428l133 53q277 113 492 120q171 6 289 -61q162 -91 194 -287q38 -235 -59 -393zM409 1204l21 -212q16 4 44 10h2q4 1 13 3t13 3q105 22 152 40q53 21 67 44
q23 35 7 130q-1 5 -2 9t-1 5h-1q-20 14 -87 12q-97 -4 -228 -44zM724 1237zM468 596l22 -221q153 -10 241 16q52 15 70 38q20 28 13 94q-5 59 -30 80q-22 20 -79 25q-98 9 -237 -32z" />
    <glyph glyph-name="uni413" unicode="&#x413;" horiz-adv-x="1392" 
d="M115 222q-20 422 -20 623q0 263 23 410q17 107 46 171q59 133 182 162q137 32 469 39q312 7 523 -13l-35 -382q-190 18 -480 11q-199 -5 -321 -19q0 -2 -5 -28q-18 -116 -18 -350q0 -200 19 -591q8 -150 11 -247l-384 -13q-1 38 -10 227z" />
    <glyph glyph-name="uni414" unicode="&#x414;" horiz-adv-x="2124" 
d="M209 1435l190 221h870l191 -171l118 -1074l347 13l199 -192v-390h-384v191l-1306 -49l22 -95l-373 -90l-78 323l180 237l188 7zM759 380l434 17l-96 875h-474z" />
    <glyph glyph-name="uni415" unicode="&#x415;" horiz-adv-x="1128" 
d="M462 1151l16 -242l310 42l51 -381l-336 -45l9 -142l536 31l22 -383l-915 -54l-48 702l-52 838l951 43l17 -384z" />
    <glyph glyph-name="uni416" unicode="&#x416;" horiz-adv-x="2280" 
d="M869 283l38 -472l382 30l-41 521l607 -477l238 302l-679 534l782 629l-240 300l-761 -612l-44 555l-382 -30l28 -357l-474 373l-238 -302l712 -560l-713 -573l240 -300z" />
    <glyph glyph-name="uni417" unicode="&#x417;" horiz-adv-x="1224" 
d="M925 1573q-118 70 -290 93q-242 35 -546 -14l62 -379q242 40 430 13q101 -14 150 -44q25 -15 31 -31q20 -86 -30 -145q-41 -48 -103 -74q-162 4 -331 -51l122 -365q119 40 221 31q62 -5 90 -28q25 -25 25 -90q0 -53 -41 -98.5t-144 -83.5q-98 -37 -220 -53.5t-226 -13.5
l-10 -383q133 -4 292 17t299 74q65 24 122.5 55t116.5 79.5t101 105.5t68.5 135.5t25.5 167.5q-2 201 -111 331q51 62 81.5 133t40 161t-15.5 186q-43 174 -210 271z" />
    <glyph glyph-name="uni418" unicode="&#x418;" horiz-adv-x="1632" 
d="M1548 1531l-41 -1536l-384 10l24 917l-716 -987l-347 119l47 1488l384 -12l-27 -864l713 983z" />
    <glyph glyph-name="uni419" unicode="&#x419;" horiz-adv-x="1632" 
d="M273 2002l342 172q37 -72 98 -135.5t130 -91.5q74 -30 151 -12q111 27 232 139l260 -284q-199 -181 -406 -229q-193 -44 -380 29q-147 60 -256.5 174.5t-170.5 237.5zM1267 1525l365 -95l-94 -1442l-383 24l32 492q-6 -10 -9 -14q-143 -245 -268 -369
q-204 -202 -410 -152q-198 49 -297 281q-69 159 -83 400q-12 216 23 449t112 417l354 -147q-58 -141 -87 -331t-19 -366q10 -173 53 -271q15 -35 30 -52q22 14 53 44q91 91 208 291q119 203 335 661q9 20 85 180zM595 341h-1h1zM574 344z" />
    <glyph glyph-name="uni41A" unicode="&#x41a;" horiz-adv-x="1620" 
d="M485 1034l-17 479l-384 -14l54 -1548l384 14l-14 386l823 -481l194 332l-843 492l732 670l-260 284z" />
    <glyph glyph-name="uni41B" unicode="&#x41b;" horiz-adv-x="1656" 
d="M1627 55l-350 -158l-503 1108l-339 -1050l-366 118l492 1522l358 20z" />
    <glyph glyph-name="uni41C" unicode="&#x41c;" horiz-adv-x="1920" 
d="M1422 895v-895h384v1488l-348 112l-549 -759l-444 745l-357 -98v-1488h384v791l237 -397l321 -14z" />
    <glyph glyph-name="uni41D" unicode="&#x41d;" horiz-adv-x="1404" 
d="M72 1541l52 -1571l383 12l-19 594l443 13l20 -595l383 13l-51 1571l-384 -12l19 -594l-443 -13l-19 595z" />
    <glyph glyph-name="uni41E" unicode="&#x41e;" 
d="M240 1382q100 117 239.5 173.5t297.5 52.5q153 -4 274.5 -38.5t219.5 -133.5q98 -98 153.5 -253t85.5 -381q64 -483 -166 -711q-197 -195 -590 -173q-313 18 -493 235q-175 209 -199 596q-23 397 178 633zM532 1132q-102 -117 -86 -360q16 -259 110 -374q74 -88 220 -96
q221 -13 298 62q94 94 55 388q-44 328 -130 414q-27 27 -77 41t-155 17q-153 4 -235 -92z" />
    <glyph glyph-name="uni41F" unicode="&#x41f;" 
d="M464 1209l530 29l111 -1230l382 34l-127 1415l-201 175l-917 -50l-181 -212l149 -1426l382 40z" />
    <glyph glyph-name="uni420" unicode="&#x420;" horiz-adv-x="1308" 
d="M490 477l29 -465l-384 -24l-87 1425l157 200q88 16 181.5 24.5t212 5t217.5 -25.5q197 -41 312 -150q155 -144 143 -367q-5 -104 -40.5 -192.5t-92.5 -152.5t-120.5 -109.5t-138.5 -78.5q-174 -77 -389 -90zM443 1257l24 -397q145 9 257 58q80 36 120 84.5t44 117.5
q2 45 -21 66q-38 36 -132 56q-119 26 -292 15z" />
    <glyph glyph-name="uni421" unicode="&#x421;" horiz-adv-x="1356" 
d="M474 1471q-215 -83 -325 -264q-118 -189 -113 -481q6 -300 198 -489q152 -151 401 -207q190 -43 394 -25q196 16 297 71l-180 339h-1q-9 -5 -40 -12q-49 -10 -107 -16q-146 -12 -279 18q-140 32 -215 105q-81 80 -84 223q-3 180 56 273q42 70 135 106q169 66 569 20
l43 381q-101 12 -180 17t-183.5 5.5t-202.5 -16t-183 -48.5z" />
    <glyph glyph-name="uni422" unicode="&#x422;" horiz-adv-x="1296" 
d="M852 1183v-1183h-384v1165l-363 -17l-18 384l1128 52l18 -384z" />
    <glyph glyph-name="uni423" unicode="&#x423;" horiz-adv-x="1272" 
d="M854 1076q-190 12 -307 160q-56 70 -88 156t-40 159l-382 -40q13 -121 64 -258.5t144 -254.5q192 -244 494 -295q-68 -135 -168 -214q-138 -112 -343 -117l11 -384q335 10 572 201q201 161 316 438q91 219 117.5 467.5t6.5 460.5l-382 -38q21 -217 -15 -441z" />
    <glyph glyph-name="uni424" unicode="&#x424;" horiz-adv-x="1884" 
d="M1144 391l27 -414l-383 -26l-28 414q-353 3 -540 133q-138 94 -181 248q-36 134 12 279q38 119 123 229.5t195 195.5q114 87 246.5 140.5t265.5 53.5q272 0 545 -145q127 -66 231.5 -157t163.5 -197q76 -134 60 -271q-18 -153 -145 -266q-184 -162 -592 -217zM735 749
l-30 461q-51 -25 -101 -65q-71 -55 -120.5 -118.5t-67.5 -118.5q-13 -43 -6 -61q3 -15 28 -33q84 -59 297 -65zM1118 775q272 40 364 121q11 10 17 19l1 3q1 13 -14 40q-26 47 -88.5 101.5t-150.5 100.5q-76 40 -158 65z" />
    <glyph glyph-name="uni425" unicode="&#x425;" horiz-adv-x="1488" 
d="M512 763l-459 582l302 238l389 -494l372 522l312 -222l-436 -615l479 -607l-302 -238l-409 519l-364 -511l-312 222z" />
    <glyph glyph-name="uni426" unicode="&#x426;" horiz-adv-x="1920" 
d="M1166 392l-613 -55l-122 1292l-383 -36l141 -1482l208 -173l1001 89l36 2l-38 -108l362 -129l136 381l-193 256l-151 -9l-166 1191l-381 -53z" />
    <glyph glyph-name="uni427" unicode="&#x427;" horiz-adv-x="1416" 
d="M139 879q73 -217 210 -321q91 -69 202 -83.5t228 26.5q95 33 172 81l-13 -578l384 -8l34 1482l-384 9q-4 -229 -55 -363q-36 -94 -98 -159.5t-164 -100.5q-51 -17 -74 0q-44 33 -78 137q-38 114 -51 267.5t-5 292.5l-383 22q-10 -168 6 -357.5t69 -346.5z" />
    <glyph glyph-name="uni428" unicode="&#x428;" horiz-adv-x="2364" 
d="M1973 1538l-370 -100l237 -881l-505 -68l-114 683l-378 -63l111 -671l-399 -53l-112 1122l-382 -38l152 -1518l2111 284z" />
    <glyph glyph-name="uni429" unicode="&#x429;" horiz-adv-x="2724" 
d="M198 1693l-103 -1539l1931 -34l-123 -106l250 -292l516 444l-125 338h-336l-66 1080l-384 -24l66 -1052l-518 9l26 517l-384 20l-26 -531l-417 7l77 1137z" />
    <glyph glyph-name="uni42A" unicode="&#x42a;" horiz-adv-x="1644" 
d="M913 1633l-90 -702q478 -177 651 -341q125 -118 133 -255q8 -145 -113 -256q-77 -70 -203 -120q-104 -43 -238 -73q-237 -56 -528 -77l-235 -18l177 1384l-366 -56l-58 379zM773 539l-41 -322q116 16 233 43q104 23 182 55q13 5 39 17q-118 93 -413 207zM1230 290h-1h1z
" />
    <glyph glyph-name="uni42B" unicode="&#x42b;" horiz-adv-x="2160" 
d="M76 528q-25 178 -14 400t36.5 404t63.5 354l375 -84q-69 -309 -88 -621q313 29 565.5 -66.5t365.5 -285.5q70 -111 67 -245.5t-86 -250.5q-152 -210 -524 -294q-173 -39 -317 4q-142 42 -246 161q-154 179 -198 524zM455 595q2 -12 2 -20q28 -229 108 -320q29 -33 65 -44
q49 -14 122 2q128 29 199.5 68.5t97.5 76.5q26 34 1 74q-20 33 -64 65.5t-120.5 62.5t-177 39t-233.5 -4zM2099 1454l-382 43l-180 -1595l381 -44z" />
    <glyph glyph-name="uni42C" unicode="&#x42c;" horiz-adv-x="1512" 
d="M99 54l99 1571l383 -27l-36 -574q527 -63 750 -239q147 -116 165 -276q17 -147 -80 -285q-74 -103 -200 -183.5t-276 -131.5q-330 -112 -645 -58q-73 13 -119 71t-41 132zM521 640l-26 -421q144 6 283 54q106 36 181.5 84t106.5 92q8 10 11 17q-15 15 -20 19
q-133 105 -536 155zM1080 461v1v-1zM1078 471l1 1z" />
    <glyph glyph-name="uni42D" unicode="&#x42d;" horiz-adv-x="1296" 
d="M658 1103q95 -83 150 -179l-473 30l-25 -383l490 -32q-180 -256 -759 -349l62 -380q538 87 837.5 324.5t307.5 576.5q4 190 -87.5 367t-251.5 316q-159 137 -370 224.5t-450 108.5l-34 -382q181 -17 336 -81.5t267 -160.5z" />
    <glyph glyph-name="uni42E" unicode="&#x42e;" horiz-adv-x="2400" 
d="M1643 1599h6q111 0 208.5 -29t172 -80.5t130.5 -115t98 -140.5q70 -127 100 -273t30 -277q0 -330 -170 -564q-114 -158 -302 -247t-448 -89q-514 0 -723 335q-100 161 -123 396l-168 23l-22 -570l-384 16l62 1560l384 -16l-24 -605l172 -23q77 306 368 497
q144 94 311.5 143.5t315.5 57.5zM1655 1215q-105 -7 -222.5 -42.5t-212.5 -97.5q-220 -143 -220 -391q0 -249 70 -361q98 -155 398 -155q311 0 439 178q97 132 97 338q0 91 -20.5 190t-62.5 176q-43 79 -106.5 121.5t-159.5 43.5z" />
    <glyph glyph-name="uni42F" unicode="&#x42f;" horiz-adv-x="1248" 
d="M813 319l-493 -372l-231 307l318 240q-153 67 -241 189q-118 159 -104 383q15 227 156 362q119 114 311 140q138 18 286.5 -9t272.5 -76l114 -46l6 -123q1 -82 2.5 -286.5t-7 -527.5t-26.5 -510l-382 35q12 121 18 294zM826 1164q-141 37 -246 23q-67 -9 -97 -37
q-32 -30 -38 -109q-5 -84 31 -131q32 -45 104 -72q111 -43 245 -24q3 192 1 350z" />
    <glyph glyph-name="uni430" unicode="&#x430;" horiz-adv-x="1344" 
d="M419 1581l368 18l528 -1530l-362 -126l-108 313l-334 58l-84 -353l-374 90zM601 688l100 -17l-62 180z" />
    <glyph glyph-name="uni431" unicode="&#x431;" horiz-adv-x="1344" 
d="M278 1565l804 43l20 -384l-611 -32l10 -194q180 32 338 -7q160 -41 263 -148q119 -122 151 -315q35 -214 -84 -371q-93 -123 -271 -189q-89 -32 -196.5 -48t-194 -15.5t-166.5 6.5l-173 180l-72 1271zM523 611l19 -322q134 7 224 40q71 25 96 59q21 25 12 78
q-12 73 -47 110q-29 29 -81 42q-97 24 -223 -7z" />
    <glyph glyph-name="uni432" unicode="&#x432;" horiz-adv-x="1176" 
d="M1045 885q131 -119 151 -323q22 -215 -86 -361q-95 -129 -272 -179q-208 -61 -551 -12l-150 21l-138 1428l133 53q277 113 492 120q171 6 289 -61q162 -91 194 -287q38 -235 -59 -393zM409 1204l21 -212q16 4 44 10h2q4 1 13 3t13 3q105 22 152 40q53 21 67 44
q23 35 7 130q-1 5 -2 9t-1 5h-1q-20 14 -87 12q-97 -4 -228 -44zM724 1237zM468 596l22 -221q153 -10 241 16q52 15 70 38q20 28 13 94q-5 59 -30 80q-22 20 -79 25q-98 9 -237 -32z" />
    <glyph glyph-name="uni433" unicode="&#x433;" horiz-adv-x="1392" 
d="M115 222q-20 422 -20 623q0 263 23 410q17 107 46 171q59 133 182 162q137 32 469 39q312 7 523 -13l-35 -382q-190 18 -480 11q-199 -5 -321 -19q0 -2 -5 -28q-18 -116 -18 -350q0 -200 19 -591q8 -150 11 -247l-384 -13q-1 38 -10 227z" />
    <glyph glyph-name="uni434" unicode="&#x434;" horiz-adv-x="2124" 
d="M209 1435l190 221h870l191 -171l118 -1074l347 13l199 -192v-390h-384v191l-1306 -49l22 -95l-373 -90l-78 323l180 237l188 7zM759 380l434 17l-96 875h-474z" />
    <glyph glyph-name="uni435" unicode="&#x435;" horiz-adv-x="1128" 
d="M462 1151l16 -242l310 42l51 -381l-336 -45l9 -142l536 31l22 -383l-915 -54l-48 702l-52 838l951 43l17 -384z" />
    <glyph glyph-name="uni436" unicode="&#x436;" horiz-adv-x="2280" 
d="M869 283l38 -472l382 30l-41 521l607 -477l238 302l-679 534l782 629l-240 300l-761 -612l-44 555l-382 -30l28 -357l-474 373l-238 -302l712 -560l-713 -573l240 -300z" />
    <glyph glyph-name="uni437" unicode="&#x437;" horiz-adv-x="1224" 
d="M925 1573q-118 70 -290 93q-242 35 -546 -14l62 -379q242 40 430 13q101 -14 150 -44q25 -15 31 -31q20 -86 -30 -145q-41 -48 -103 -74q-162 4 -331 -51l122 -365q119 40 221 31q62 -5 90 -28q25 -25 25 -90q0 -53 -41 -98.5t-144 -83.5q-98 -37 -220 -53.5t-226 -13.5
l-10 -383q133 -4 292 17t299 74q65 24 122.5 55t116.5 79.5t101 105.5t68.5 135.5t25.5 167.5q-2 201 -111 331q51 62 81.5 133t40 161t-15.5 186q-43 174 -210 271z" />
    <glyph glyph-name="uni438" unicode="&#x438;" horiz-adv-x="1632" 
d="M1548 1531l-41 -1536l-384 10l24 917l-716 -987l-347 119l47 1488l384 -12l-27 -864l713 983z" />
    <glyph glyph-name="uni439" unicode="&#x439;" horiz-adv-x="1632" 
d="M273 2002l342 172q37 -72 98 -135.5t130 -91.5q74 -30 151 -11q110 25 232 138l260 -284q-199 -181 -406 -229q-193 -44 -380 29q-147 60 -256.5 174.5t-170.5 237.5zM1267 1525l365 -95l-94 -1442l-383 24l32 492q-6 -10 -9 -14q-141 -242 -268 -369
q-204 -202 -410 -151q-198 48 -297 280q-69 159 -83 400q-12 216 23 449t112 417l354 -147q-58 -141 -87 -331t-19 -366q10 -173 53 -271q15 -35 30 -52q22 14 53 44q91 91 208 291q119 203 335 661q9 20 85 180zM595 341q-1 0 -1 1zM574 344z" />
    <glyph glyph-name="uni43A" unicode="&#x43a;" horiz-adv-x="1620" 
d="M485 1034l-17 479l-384 -14l54 -1548l384 14l-14 386l823 -481l194 332l-843 492l732 670l-260 284z" />
    <glyph glyph-name="uni43B" unicode="&#x43b;" horiz-adv-x="1656" 
d="M1627 55l-350 -158l-503 1108l-339 -1050l-366 118l492 1522l358 20z" />
    <glyph glyph-name="uni43C" unicode="&#x43c;" horiz-adv-x="1920" 
d="M1422 895v-895h384v1488l-348 113l-549 -760l-444 745l-357 -98v-1488h384v791l237 -397l321 -14z" />
    <glyph glyph-name="uni43D" unicode="&#x43d;" horiz-adv-x="1404" 
d="M72 1541l52 -1571l383 12l-19 594l443 13l20 -595l383 13l-51 1571l-384 -12l19 -594l-443 -13l-19 595z" />
    <glyph glyph-name="uni43E" unicode="&#x43e;" 
d="M240 1382q100 117 239.5 173.5t297.5 52.5q153 -4 274.5 -38.5t219.5 -133.5q98 -98 153.5 -253t85.5 -381q64 -483 -166 -711q-197 -195 -590 -173q-313 18 -493 235q-175 209 -199 596q-23 397 178 633zM532 1132q-102 -117 -86 -360q16 -259 110 -374q74 -88 220 -96
q221 -13 298 62q94 94 55 388q-44 328 -130 414q-27 27 -77 41t-155 17q-153 4 -235 -92z" />
    <glyph glyph-name="uni43F" unicode="&#x43f;" 
d="M464 1209l530 29l111 -1230l382 34l-127 1415l-201 175l-917 -50l-181 -212l149 -1426l382 40z" />
    <glyph glyph-name="uni440" unicode="&#x440;" horiz-adv-x="1308" 
d="M490 477l29 -465l-384 -24l-87 1425l157 200q88 16 181.5 24.5t212 5t217.5 -25.5q197 -41 312 -150q155 -144 143 -367q-5 -104 -40.5 -192.5t-92.5 -152.5t-120.5 -109.5t-138.5 -78.5q-174 -77 -389 -90zM443 1257l24 -397q145 9 257 58q80 36 120 84.5t44 117.5
q2 45 -21 66q-38 36 -132 56q-119 26 -292 15z" />
    <glyph glyph-name="uni441" unicode="&#x441;" horiz-adv-x="1356" 
d="M474 1471q-215 -83 -325 -264q-118 -189 -113 -481q6 -300 198 -489q152 -151 401 -207q190 -43 394 -25q196 16 297 71l-180 339h-1q-9 -5 -40 -12q-49 -10 -107 -16q-146 -12 -279 18q-140 32 -215 105q-81 80 -84 223q-3 180 56 273q44 72 135 106q169 66 569 20
l43 381q-101 12 -180 17t-183.5 5.5t-202.5 -16t-183 -48.5z" />
    <glyph glyph-name="uni442" unicode="&#x442;" horiz-adv-x="1296" 
d="M852 1183v-1183h-384v1165l-363 -17l-18 384l1128 52l18 -384z" />
    <glyph glyph-name="uni443" unicode="&#x443;" horiz-adv-x="1272" 
d="M854 1076q-190 12 -307 160q-56 70 -88 156t-40 159l-382 -40q13 -121 64 -258.5t144 -254.5q192 -244 494 -295q-68 -135 -168 -214q-138 -112 -343 -117l11 -384q335 10 572 201q201 161 316 438q91 219 117.5 467.5t6.5 460.5l-382 -38q21 -217 -15 -441z" />
    <glyph glyph-name="uni444" unicode="&#x444;" horiz-adv-x="1884" 
d="M1144 391l27 -414l-383 -26l-28 414q-353 3 -540 133q-138 94 -181 248q-36 134 12 279q38 119 123 229.5t195 195.5q114 87 246.5 140.5t265.5 53.5q272 0 545 -145q127 -66 231.5 -157t163.5 -197q76 -134 60 -271q-18 -153 -145 -266q-184 -162 -592 -217zM735 749
l-30 461q-51 -25 -101 -65q-71 -55 -120.5 -118.5t-67.5 -118.5q-13 -43 -6 -61q3 -15 28 -33q84 -59 297 -65zM1118 775q272 40 364 121q11 10 17 19l1 3q1 13 -14 40q-26 47 -88.5 101.5t-150.5 100.5q-76 40 -158 65z" />
    <glyph glyph-name="uni445" unicode="&#x445;" horiz-adv-x="1488" 
d="M512 763l-459 582l302 238l389 -494l372 522l312 -222l-436 -615l479 -607l-302 -238l-409 519l-364 -511l-312 222z" />
    <glyph glyph-name="uni446" unicode="&#x446;" horiz-adv-x="1920" 
d="M1166 392l-613 -55l-122 1292l-383 -36l141 -1482l208 -173l1001 89l36 2l-38 -108l362 -129l136 381l-193 256l-151 -9l-166 1191l-381 -53z" />
    <glyph glyph-name="uni447" unicode="&#x447;" horiz-adv-x="1416" 
d="M139 879q72 -216 210 -321q91 -69 202 -83.5t228 26.5q95 33 172 81l-13 -578l384 -8l34 1482l-384 9q-4 -229 -55 -363q-36 -94 -98 -159.5t-164 -100.5q-51 -17 -74 0q-44 33 -78 137q-38 114 -51 267.5t-5 292.5l-383 22q-10 -168 6 -357.5t69 -346.5z" />
    <glyph glyph-name="uni448" unicode="&#x448;" horiz-adv-x="2364" 
d="M1973 1538l-370 -100l237 -881l-505 -68l-114 683l-378 -63l111 -671l-399 -53l-112 1122l-382 -38l152 -1518l2111 284z" />
    <glyph glyph-name="uni449" unicode="&#x449;" horiz-adv-x="2724" 
d="M198 1693l-103 -1539l1931 -34l-123 -106l250 -292l516 444l-125 338h-336l-66 1080l-384 -24l66 -1052l-518 9l26 517l-384 20l-26 -531l-417 7l77 1137z" />
    <glyph glyph-name="uni44A" unicode="&#x44a;" horiz-adv-x="1644" 
d="M913 1633l-90 -702q478 -177 651 -341q125 -118 133 -255q8 -145 -113 -256q-77 -70 -203 -120q-104 -43 -238 -73q-237 -56 -528 -77l-235 -18l177 1384l-366 -56l-58 379zM773 539l-41 -322q116 16 233 43q104 23 182 55q13 5 39 17q-118 93 -413 207zM1230 290h-1h1z
" />
    <glyph glyph-name="uni44B" unicode="&#x44b;" horiz-adv-x="2160" 
d="M76 528q-25 178 -14 400t36.5 404t63.5 354l375 -84q-69 -309 -88 -621q313 29 565.5 -66.5t365.5 -285.5q70 -111 67 -245.5t-86 -250.5q-152 -210 -524 -294q-173 -39 -317 4q-142 42 -246 161q-154 179 -198 524zM455 595q2 -12 2 -20q28 -229 108 -320q29 -33 65 -44
q49 -14 122 2q128 29 199.5 68.5t97.5 76.5q26 34 1 74q-20 33 -64 65.5t-120.5 62.5t-177 39t-233.5 -4zM2099 1454l-382 43l-180 -1595l381 -44z" />
    <glyph glyph-name="uni44C" unicode="&#x44c;" horiz-adv-x="1512" 
d="M99 54l99 1571l383 -27l-36 -574q527 -63 750 -239q147 -116 165 -276q17 -147 -80 -285q-74 -103 -200 -183.5t-276 -131.5q-330 -112 -645 -58q-73 13 -119 71t-41 132zM521 640l-26 -421q144 6 283 54q106 36 181.5 84t106.5 92q8 10 11 17q-15 15 -20 19
q-133 105 -536 155zM1080 461v1v-1zM1078 471l1 1z" />
    <glyph glyph-name="uni44D" unicode="&#x44d;" horiz-adv-x="1296" 
d="M658 1103q95 -83 150 -179l-473 30l-25 -383l490 -32q-180 -256 -759 -349l62 -380q538 87 837.5 324.5t307.5 576.5q4 190 -87.5 367t-251.5 316q-159 137 -370 224.5t-450 108.5l-34 -382q181 -17 336 -81.5t267 -160.5z" />
    <glyph glyph-name="uni44E" unicode="&#x44e;" horiz-adv-x="2400" 
d="M1643 1599h6q111 0 208.5 -29t172 -80.5t130.5 -115t98 -140.5q70 -127 100 -273t30 -277q0 -330 -170 -564q-114 -158 -302 -247t-448 -89q-514 0 -723 335q-100 161 -123 396l-168 23l-22 -570l-384 16l62 1560l384 -16l-24 -605l172 -23q77 306 368 497
q144 94 311.5 143.5t315.5 57.5zM1655 1215q-105 -7 -222.5 -42.5t-212.5 -97.5q-220 -143 -220 -391q0 -249 70 -361q98 -155 398 -155q311 0 439 178q97 132 97 338q0 91 -20.5 190t-62.5 176q-43 79 -106.5 121.5t-159.5 43.5z" />
    <glyph glyph-name="uni44F" unicode="&#x44f;" horiz-adv-x="1248" 
d="M813 319l-493 -372l-231 307l318 240q-153 67 -241 189q-118 159 -104 383q15 227 156 362q119 114 311 140q138 18 286.5 -9t272.5 -76l114 -46l6 -123q1 -82 2.5 -286.5t-7 -527.5t-26.5 -510l-382 35q12 121 18 294zM826 1164q-141 37 -246 23q-67 -9 -97 -37
q-32 -30 -38 -109q-5 -84 31 -131q32 -45 104 -72q111 -43 245 -24q3 192 1 350z" />
    <glyph glyph-name="uni451" unicode="&#x451;" horiz-adv-x="1236" 
d="M167 1669h384v275h-384v-275zM659 1669h384v275h-384v-275zM95 1544l54 -865l45 -673l944 -101l40 382l-622 67l-10 146h384v384h-409l-16 241l541 -44l32 382z" />
    <glyph glyph-name="enspace" unicode="&#x2002;" 
 />
    <glyph glyph-name="emspace" unicode="&#x2003;" horiz-adv-x="3072" 
 />
    <glyph glyph-name="thirdemspace" unicode="&#x2004;" horiz-adv-x="1020" 
 />
    <glyph glyph-name="quarteremspace" unicode="&#x2005;" horiz-adv-x="768" 
 />
    <glyph glyph-name="sixthemspace" unicode="&#x2006;" horiz-adv-x="516" 
 />
    <glyph glyph-name="figurespace" unicode="&#x2007;" horiz-adv-x="768" 
 />
    <glyph glyph-name="punctuationspace" unicode="&#x2008;" horiz-adv-x="384" 
 />
    <glyph glyph-name="thinspace" unicode="&#x2009;" horiz-adv-x="192" 
 />
    <glyph glyph-name="hairspace" unicode="&#x200a;" horiz-adv-x="96" 
 />
    <glyph glyph-name="emdash" unicode="&#x2014;" horiz-adv-x="1368" 
d="M1345 408l-2 384l-1296 -6l2 -384z" />
    <glyph glyph-name="bullet" unicode="&#x2022;" horiz-adv-x="1368" 
d="M384 300h624v612h-624v-612z" />
    <glyph glyph-name="uni2190" unicode="&#x2190;" horiz-adv-x="1932" 
d="M682 528h1220v384h-1180l387 305l-238 302l-822 -648l-7 -296l822 -714l252 290z" />
    <glyph glyph-name="uni2192" unicode="&#x2192;" horiz-adv-x="1932" 
d="M1280 528h-1220v384h1180l-387 305l238 302l822 -648l7 -296l-822 -714l-252 290z" />
  </font>
</defs>
</svg>
