<?xml version="1.0" standalone="no"?>
<!DOCTYPE svg PUBLIC "-//W3C//DTD SVG 1.1//EN" "http://www.w3.org/Graphics/SVG/1.1/DTD/svg11.dtd" >
<svg xmlns="http://www.w3.org/2000/svg" xmlns:xlink="http://www.w3.org/1999/xlink" version="1.1">
<metadata>
Created by FontForge 20170731 at Thu Jul 20 07:43:57 2023
 By Aleksey,,,
 
</metadata>
<defs>
<font id="IsamiRiDisplayRegular" horiz-adv-x="848" >
  <font-face 
    font-family="IsamiRi Display"
    font-weight="500"
    font-stretch="normal"
    units-per-em="2048"
    panose-1="0 0 0 0 0 0 0 0 0 0"
    ascent="1638"
    descent="-410"
    x-height="1007"
    cap-height="1048"
    bbox="24 -260 1753 1489"
    underline-thickness="50"
    underline-position="-150"
    unicode-range="U+0020-2192"
  />
<missing-glyph horiz-adv-x="2048" 
 />
    <glyph glyph-name=".notdef" horiz-adv-x="2048" 
 />
    <glyph glyph-name=".notdef" horiz-adv-x="2048" 
 />
    <glyph glyph-name=".null" horiz-adv-x="0" 
 />
    <glyph glyph-name="nonmarkingreturn" horiz-adv-x="682" 
 />
    <glyph glyph-name="space" unicode=" " horiz-adv-x="432" 
 />
    <glyph glyph-name="exclam" unicode="!" horiz-adv-x="416" 
d="M103 241l176 -9l49 891l-176 10zM101 160l-13 -235l176 -10l13 235z" />
    <glyph glyph-name="numbersign" unicode="#" horiz-adv-x="1296" 
d="M352 856l61 340l174 -32l-56 -308h309l61 340l174 -32l-56 -308h253v-176h-284l-77 -424h289v-176h-320l-61 -340l-174 32l56 308h-309l-61 -340l-174 32l56 308h-189v176h220l77 424h-225v176h256zM500 680l-77 -424h309l77 424h-309z" />
    <glyph glyph-name="dollar" unicode="$" horiz-adv-x="1024" 
d="M442 971v197h176v-186q161 4 359 -17l-18 -175q-188 20 -341 16v-217q117 -13 183 -37q78 -28 122 -79q53 -63 55 -150q1 -128 -123 -202q-83 -48 -231 -70q-1 0 -3 -0.5t-3 -0.5v-218h-176v206q-150 -4 -309 15l22 175q143 -18 287 -14v213q-133 11 -211 37
q-78 28 -121 76q-54 60 -54 148q0 137 135 212q91 51 251 71zM442 794q-109 -17 -165 -47q-45 -26 -45 -59q0 -20 9 -31q15 -15 47 -26q49 -17 154 -27v190zM618 412v-184q96 15 147 45q37 21 37 47q0 23 -12 37q-16 18 -49 29q-45 16 -123 26z" />
    <glyph glyph-name="percent" unicode="%" horiz-adv-x="1024" 
d="M930 973l-148 94l-632 -1004l148 -94zM136 676h176v248h-176v-248zM740 88h176v248h-176v-248z" />
    <glyph glyph-name="ampersand" unicode="&#x26;" horiz-adv-x="1064" 
d="M892 151l73 -73l-122 -126q-21 20 -65 64q-93 -78 -207 -97q-146 -26 -319 44q-129 52 -166 149q-35 90 16 196q32 71 112 165q50 59 92 102q-21 31 -23 35q-54 87 -81 160q-33 90 -20 158q19 94 109 132q72 30 188 15q146 -17 208 -79q40 -40 46 -95q5 -45 -13 -94
q-25 -66 -98 -152q-28 -33 -88 -97q94 -124 231 -273q38 81 52 168l174 -26q-23 -150 -99 -276zM656 143q-138 148 -246 286q-42 -46 -62 -69q-62 -72 -87 -126q-18 -42 -11 -59q7 -24 68 -49q127 -51 223 -34q63 11 115 51zM431 706q30 32 57 63q55 65 67 100l3 6
q-31 17 -100 26q-68 8 -100 -4l-3 -1v-1q-3 -22 13 -65q17 -49 63 -124z" />
    <glyph glyph-name="parenleft" unicode="(" horiz-adv-x="536" 
d="M344 -182l144 100q-90 128 -146 260.5t-76 247t-17 226.5t25 203.5t57.5 174.5t72.5 141t77 102l-130 118q-49 -53 -94 -123.5t-86.5 -168t-67.5 -204t-30 -236.5t19 -262t86.5 -282.5t165.5 -296.5z" />
    <glyph glyph-name="parenright" unicode=")" horiz-adv-x="536" 
d="M232 -182l-144 100q90 128 146 260.5t76 247t17 226.5t-25 203.5t-57 174.5t-72.5 141t-77.5 102l130 118q49 -53 94 -123.5t86.5 -168t67.5 -204t30 -236.5t-19 -262t-86.5 -282.5t-165.5 -296.5z" />
    <glyph glyph-name="asterisk" unicode="*" horiz-adv-x="760" 
d="M335 1155l-174 71l-104 -135l256 -344l158 43l13 114l171 -69l66 163l-217 88l19 176l-174 20z" />
    <glyph glyph-name="plus" unicode="+" horiz-adv-x="912" 
d="M547 525l340 3l2 -176l-340 -3l3 -340l-176 -2l-3 340l-340 -3l-2 176l340 3l-3 340l176 2z" />
    <glyph glyph-name="hyphen" unicode="-" horiz-adv-x="632" 
d="M612 308v176h-580v-176h580z" />
    <glyph glyph-name="period" unicode="." horiz-adv-x="320" 
d="M79 -19l176 7l-7 191l-176 -6z" />
    <glyph glyph-name="slash" unicode="/" 
d="M802 1022l-156 84l-588 -1096l156 -84z" />
    <glyph glyph-name="zero" unicode="0" horiz-adv-x="816" 
d="M644 946q100 -144 100 -427q0 -291 -131 -430q-57 -60 -125.5 -82t-131.5 -12l-39 17q-35 27 -72 70.5t-75.5 106.5t-63.5 150t-26 179q-3 184 115 362q46 73 103 122q32 27 59 41q34 19 70 20q58 5 115.5 -24.5t101.5 -92.5zM443 888h-3h-1l-1 -1q-12 -7 -24 -18
q-35 -28 -72 -85q-87 -133 -86 -264q1 -115 47.5 -207t101.5 -145q45 4 80 42q83 85 83 309q0 228 -68 326q-29 43 -57 43zM441 888zM438 888l-5 -1q3 0 5 1z" />
    <glyph glyph-name="one" unicode="1" horiz-adv-x="504" 
d="M252 722v-746h176v1048l-162 47l-204 -320l148 -94z" />
    <glyph glyph-name="two" unicode="2" horiz-adv-x="736" 
d="M422 922q27 11 46 13q2 1 7 1q0 -1 0.5 -5t0.5 -6q3 -56 -32 -165q-32 -97 -99 -237q-112 -229 -247 -437l74 -136h516v176h-358q96 163 173 321q72 150 108 258q46 140 41 230q-3 60 -31 103q-30 47 -85 65q-72 24 -177 -16q-134 -52 -295 -185l112 -136
q135 113 246 156z" />
    <glyph glyph-name="three" unicode="3" horiz-adv-x="752" 
d="M431 943l-201 -266l16 -122q117 -92 195 -183q87 -102 103 -174q5 -27 -2 -43q-9 -20 -36 -36q-98 -58 -349 -55l-2 -176q303 -3 442 80q77 47 107 118q29 67 12 147q-23 114 -142 254q-65 76 -153 151l277 365l-81 140l-572 -72l22 -174z" />
    <glyph glyph-name="four" unicode="4" horiz-adv-x="736" 
d="M75 501l80 -109l293 -15l-55 -467l174 -20l96 808l-174 20l-20 -166l-198 10l130 537l-170 42z" />
    <glyph glyph-name="five" unicode="5" horiz-adv-x="816" 
d="M163 1040l-81 -440l73 -102q187 -30 295 -94q31 -18 50 -36.5t24 -28.5t5 -17q1 -6 -2.5 -15.5t-23.5 -30t-54 -41.5q-124 -76 -378 -125l34 -172q284 53 436 147q169 102 164 244q-5 132 -165 227q-109 63 -269 99l50 274l415 -40l16 175l-494 48z" />
    <glyph glyph-name="six" unicode="6" 
d="M246 893q143 147 328 228l70 -162q-153 -66 -272 -189q-105 -108 -135 -221q141 32 259 19q113 -14 185 -68q92 -70 112 -190q19 -109 -14 -194q-31 -79 -101 -128q-104 -70 -247 -59l-3 1q-44 5 -91.5 24t-98.5 59.5t-91.5 96t-68 141t-30.5 188.5q-6 244 198 454z
M231 366q12 -70 40 -123t62.5 -80.5t62.5 -41t52 -16.5q78 -8 131 29q25 17 36 45q15 39 5 102q-9 50 -44 78q-36 27 -100 34q-111 13 -245 -27z" />
    <glyph glyph-name="seven" unicode="7" horiz-adv-x="776" 
d="M516 908l-408 -920l160 -72l460 1036l-75 124l-608 36l-10 -176z" />
    <glyph glyph-name="eight" unicode="8" horiz-adv-x="776" 
d="M231 1045q92 67 192 67q108 0 193 -90q78 -81 93 -194q17 -128 -59 -231q-37 -52 -99 -91q52 -48 83 -103q62 -109 30 -227q-28 -102 -111 -170q-85 -70 -182 -70q-100 0 -189 84q-85 78 -114 183q-35 131 30 236q37 58 97 98q-55 52 -83 109q-55 113 -11 233
q37 98 130 166zM381 618q90 32 128 84q33 44 26 102q-8 56 -47 97q-34 35 -65 35q-42 0 -89 -34q-49 -36 -68 -85q-18 -49 4 -93q29 -57 111 -106zM362 427q-86 -34 -114 -81q-25 -42 -10 -95q15 -55 63 -102q40 -37 70 -37q35 0 70 30q41 35 53 79q12 50 -14 97
q-34 59 -118 109z" />
    <glyph glyph-name="nine" unicode="9" horiz-adv-x="816" 
d="M212 1074q78 46 183 36q120 -13 197 -65q76 -51 117 -144q21 -48 33.5 -118t16 -121t8.5 -145q0 -9 1 -14q8 -169 -49 -285q-54 -112 -162 -175q-158 -91 -428 -71l14 176q215 -17 326 48q61 34 92 98q20 44 27 96q-107 -13 -202 10.5t-158 71t-102.5 105t-48.5 115.5v3
q-20 145 31 257q37 80 104 122zM588 567q-11 193 -41 265q-20 45 -53 67q-42 28 -117 36q-44 5 -73 -11q-23 -16 -35 -44q-30 -66 -18 -160q3 -16 16.5 -38t40 -48t65.5 -44t93 -27t122 4z" />
    <glyph glyph-name="colon" unicode=":" horiz-adv-x="320" 
d="M32 861l176 6l7 -191l-176 -7zM32 349l176 6l7 -191l-176 -7z" />
    <glyph glyph-name="less" unicode="&#x3c;" horiz-adv-x="760" 
d="M250 477l468 -407l-116 -132l-548 476l4 135l548 432l108 -138z" />
    <glyph glyph-name="equal" unicode="=" horiz-adv-x="912" 
d="M31 562l2 176l856 -12l-2 -176zM36 164l-7 176l855 32l7 -176z" />
    <glyph glyph-name="greater" unicode="&#x3e;" horiz-adv-x="768" 
d="M522 477l-468 -407l116 -132l548 476l-4 135l-548 432l-108 -138z" />
    <glyph glyph-name="question" unicode="?" horiz-adv-x="1288" 
d="M331 856q32 26 63 31q32 5 69 -14q77 -42 88 -83q7 -34 -27 -108q-11 -22 -45 -86l-1 -1q-38 -72 -53 -105q-66 -136 -75 -261l176 -12q7 90 58 198q12 26 49 96l2 4q30 52 48 93q60 125 40 219q-26 119 -177 201q-89 48 -181 32q-74 -12 -143 -66q-50 -39 -87 -91.5
t-56 -96.5l162 -68q32 71 90 118zM331 -26l176 -12l14 208l-176 12z" />
    <glyph glyph-name="at" unicode="@" horiz-adv-x="1136" 
d="M637 877l7 2q22 2 42 -1q61 -9 104 -48q90 -83 61 -267l-90 155l-147 8l-211 -286l142 -104l131 178l127 -219l159 13q59 155 68.5 284t-22.5 217.5t-99 150.5q-85 77 -199 93q-49 6 -92 0q-50 -7 -86 -34q-368 -287 -441 -519q-38 -118 0 -222q35 -93 128 -161
q148 -107 416 -134q240 -23 450 27l-42 171q-178 -43 -391 -23q-220 22 -330 102q-50 36 -66 80q-17 44 2 107q58 179 379 430z" />
    <glyph glyph-name="A" unicode="A" horiz-adv-x="896" 
d="M318 1044l169 9l352 -1020l-166 -58l-80 231l-282 49l-65 -271l-172 40zM352 427l176 -31l-109 314z" />
    <glyph glyph-name="B" unicode="B" horiz-adv-x="784" 
d="M631 549q10 -8 14 -12q77 -66 89 -185t-47 -201q-51 -70 -150 -99q-118 -34 -323 -7l-69 10l-79 833l61 24q163 67 289 72q98 2 161 -34q87 -50 103 -155q22 -134 -32 -221q-5 -9 -17 -25zM254 772l18 -190q22 6 59 15l15 3q66 14 97 26q40 15 55 39q20 34 8 102
q-3 24 -17 30q-21 12 -67 11q-70 -3 -168 -36zM290 398l17 -186q117 -11 181 9q42 12 57 34q19 25 14 80q-5 49 -29 69q-19 18 -63 22q-76 6 -177 -28z" />
    <glyph glyph-name="C" unicode="C" horiz-adv-x="904" 
d="M330 943q-128 -48 -197 -159q-72 -118 -69 -300q4 -184 120 -298q93 -91 248 -127q117 -27 251 -16q122 10 182 43l-82 155q-34 -15 -115 -23q-102 -9 -197 13q-107 24 -163 81q-65 64 -68 176q-3 130 43 204q35 57 110 87q122 46 398 15l20 175q-317 37 -481 -26z" />
    <glyph glyph-name="D" unicode="D" horiz-adv-x="880" 
d="M779 759q65 -119 55 -289q-9 -149 -88.5 -247t-195.5 -147q-91 -40 -194 -50q-97 -9 -153 13l-50 19l-109 920l95 4q139 5 251.5 -5t206.5 -53q122 -57 182 -165zM242 808l72 -608q8 0 26 2q74 7 140 35q169 74 178 243q8 121 -33 194q-32 58 -101 90q-97 44 -282 44z
" />
    <glyph glyph-name="E" unicode="E" horiz-adv-x="752" 
d="M266 806l15 -245l250 33l23 -174l-261 -35l11 -172l397 23l10 -176l-570 -33l-30 429l-32 517l593 27l8 -176z" />
    <glyph glyph-name="F" unicode="F" horiz-adv-x="752" 
d="M253 804l18 -275h283v-176h-271l27 -346l-175 -14l-35 441l-33 538l617 28l8 -176z" />
    <glyph glyph-name="G" unicode="G" horiz-adv-x="968" 
d="M383 1024q-164 -31 -247 -159q-88 -137 -68 -373q24 -289 179 -426q72 -63 159 -85t174 -6q82 14 154.5 58t120.5 108q52 71 63.5 152.5t-26.5 175.5l-22 48l-377 27l-12 -176l264 -19q5 -55 -32 -104q-58 -78 -163 -97q-108 -20 -186 49q-103 92 -121 310
q-14 175 41 263q41 64 130 81q87 15 201 -12.5t217 -78.5l80 157q-121 61 -263 95.5t-266 11.5z" />
    <glyph glyph-name="H" unicode="H" horiz-adv-x="936" 
d="M88 1029l34 -1048l176 6l-14 435l375 12l15 -436l176 5l-35 1048l-176 -6l15 -435l-376 -12l-14 436z" />
    <glyph glyph-name="I" unicode="I" horiz-adv-x="368" 
d="M120 -2l176 4l-24 1024l-176 -4z" />
    <glyph glyph-name="J" unicode="J" horiz-adv-x="944" 
d="M702 454q-8 -144 -51 -225q-40 -69 -109 -75q-172 -14 -243 71q-50 60 -42 145l-175 17q-7 -64 11.5 -138t69.5 -136q130 -157 394 -134q163 13 248 165q63 113 73 300q8 148 -14 316.5t-58 309.5l-170 -44q33 -131 53.5 -286t12.5 -286z" />
    <glyph glyph-name="K" unicode="K" horiz-adv-x="1208" 
d="M260 604q132 -40 232 -25q94 17 156 85q56 61 84 153.5t28 181.5h176q0 -115 -37 -239t-121 -215q-28 -31 -63 -57q108 -44 194 -108q109 -82 172.5 -185t68.5 -192l-176 -9q-2 44 -44.5 113t-126.5 132q-207 156 -533 149l17 -372l-176 -8l-24 528l-23 484l176 8z" />
    <glyph glyph-name="L" unicode="L" horiz-adv-x="928" 
d="M90 871q2 114 2 153h176q0 -44 -2 -162q-4 -248 0 -374q5 -140 21 -222q4 -18 11 -42q83 -10 247 -8q197 3 324 19l22 -175q-136 -17 -344 -20q-221 -2 -305 15q-59 11 -96 78q-20 38 -32 98q-18 87 -23 251q-5 131 -1 389zM304 212v1v-1z" />
    <glyph glyph-name="M" unicode="M" horiz-adv-x="1280" 
d="M988 720v-720h176v992l-159 52l-402 -556l-327 549l-164 -45v-992h176v673l232 -390l147 -7z" />
    <glyph glyph-name="N" unicode="N" horiz-adv-x="1096" 
d="M1045 147q-18 -169 -146 -201q-66 -17 -139 19q-53 25 -114 81q-93 85 -213 259q-77 112 -159 253l36 -552l-175 -12l-63 962l167 44q160 -335 339 -595q102 -150 188 -230q41 -38 70 -51q14 -7 21 -7q0 1 1 2q8 12 12 47q9 78 -21 224q-53 255 -174 544l163 68
q132 -323 183 -576q36 -170 24 -279zM856 116zM857 117z" />
    <glyph glyph-name="O" unicode="O" horiz-adv-x="1024" 
d="M190 895q121 142 327 137q97 -3 170.5 -23.5t131.5 -79.5q59 -59 94 -156t54 -243q40 -303 -99 -441q-119 -118 -363 -103q-190 10 -300 142q-109 129 -123 374q-15 248 108 393zM324 781q-78 -92 -67 -269q12 -188 83 -272q60 -72 175 -79q166 -9 229 53q78 76 48 292
q-30 232 -98 300q-25 25 -66 36.5t-116 13.5q-121 3 -188 -75z" />
    <glyph glyph-name="P" unicode="P" horiz-adv-x="872" 
d="M285 342l21 -336l-176 -12l-58 919l72 92q217 38 391 3q121 -26 189 -87q90 -82 84 -210q-7 -117 -74 -194.5t-165 -118.5q-131 -56 -284 -56zM253 842l20 -324q125 -2 227 41q126 55 132 161q3 45 -26 70q-34 31 -107 45q-102 22 -246 7z" />
    <glyph glyph-name="Q" unicode="Q" horiz-adv-x="1192" 
d="M764 1009q175 -69 287 -339q108 -269 9 -427q-5 -11 -14 -21l119 -103l-115 -134l-141 122q-55 -31 -131 -59q-208 -78 -362 -44q-214 46 -298 283q-87 245 -34 415q62 194 295 281q230 87 385 26zM912 337q49 86 -24 266q-82 200 -189 243q-91 36 -258 -27
q-154 -59 -189 -170q-35 -115 32 -303q51 -145 169 -170q106 -23 263 37q4 1 48 19l-126 109l115 134z" />
    <glyph glyph-name="R" unicode="R" horiz-adv-x="832" 
d="M262 295q5 -171 15 -282l-175 -16q-17 176 -20.5 482t-0.5 395l3 57l53 20q77 31 171.5 48.5t180.5 6.5q116 -16 185 -83q83 -78 92 -215q9 -133 -62 -229q-60 -82 -167 -122q-23 -9 -45 -15l272 -205l-106 -140zM256 807q0 -175 1 -297q38 -12 102 -10.5t116 21.5
q59 23 87 62q32 44 28 114q-4 66 -37 99q-31 28 -87 35q-89 12 -210 -24z" />
    <glyph glyph-name="S" unicode="S" horiz-adv-x="720" 
d="M407 985q116 27 245 22l-8 -176q-102 5 -197 -17q-93 -22 -136 -58q-26 -23 -20 -49q13 -58 124 -147q96 -78 150 -144q58 -73 70 -137q14 -78 -30 -138q-34 -47 -98 -76q-87 -39 -230 -47q-110 -6 -192 5l22 174q70 -9 160 -3q113 7 168 32q21 9 27 18v3q-6 23 -34 59
q-41 50 -123 116q-157 125 -185 243q-32 132 76 224q77 66 211 96zM462 243z" />
    <glyph glyph-name="T" unicode="T" horiz-adv-x="864" 
d="M528 827v-827h-176v819l-284 -13l-8 175l752 35l8 -176z" />
    <glyph glyph-name="U" unicode="U" horiz-adv-x="1016" 
d="M936 653q-31 153 -127 368q-3 7 -6 13.5l-6 13t-4 9.5l-163 -66l21 -49q86 -192 112 -323q51 -260 -100 -361q-148 -97 -229 -67q-67 24 -113 147q-81 224 -61 682l-176 8q-22 -494 72 -750q72 -200 218 -253q165 -59 386 86q250 165 176 542z" />
    <glyph glyph-name="V" unicode="V" horiz-adv-x="1104" 
d="M1049 1062l-162 68l-377 -888l-258 852l-168 -50l328 -1085l165 -9z" />
    <glyph glyph-name="W" unicode="W" horiz-adv-x="1304" 
d="M1174 186q36 107 50 273q20 251 -9 573l-175 -16q29 -305 8 -543q-11 -141 -41 -230q-25 -75 -52 -84q-28 -12 -50 -3q-27 14 -53 51q-55 82 -79 209q7 166 -29 352l-173 -34q33 -168 25 -319q-5 -127 -41 -195q-28 -54 -77 -54q-37 -2 -76 60q-47 79 -79 224
q-55 253 -51 573l-176 2q-4 -342 55 -613q37 -173 102 -279q90 -146 227 -143q141 1 220 128q3 -6 8 -11q53 -80 127 -112q91 -39 188 1q99 41 151 190z" />
    <glyph glyph-name="X" unicode="X" horiz-adv-x="992" 
d="M392 510l-325 412l138 108l293 -371l278 392l144 -102l-309 -434l338 -429l-138 -108l-306 388l-273 -385l-144 102z" />
    <glyph glyph-name="Y" unicode="Y" horiz-adv-x="864" 
d="M492 683l-315 341l-130 -120l368 -397l-225 -512l161 -70l458 1040l-162 70z" />
    <glyph glyph-name="Z" unicode="Z" horiz-adv-x="920" 
d="M603 827l-542 -693l80 -141l670 85l-22 174l-458 -58l538 688l-78 142l-712 -75l18 -175z" />
    <glyph glyph-name="backslash" unicode="\" 
d="M58 1022l156 84l588 -1096l-156 -84z" />
    <glyph glyph-name="asciicircum" unicode="^" horiz-adv-x="832" 
d="M420 847l221 -263l134 112l-288 344l-134 1l-292 -344l134 -114z" />
    <glyph glyph-name="a" unicode="a" horiz-adv-x="912" 
d="M257 972l166 29l471 -904l-156 -82l-140 269h-261l-34 -240l-174 24zM362 460h144l-113 217z" />
    <glyph glyph-name="b" unicode="b" horiz-adv-x="880" 
d="M682 893q104 -57 122 -145q21 -98 -64 -175q-22 -21 -56 -41q10 -4 14 -7q91 -47 107 -130q15 -87 -69 -166q-57 -53 -146 -99q-148 -79 -326 -134l-114 77l-62 823l82 95q60 4 153.5 -4.5t180.5 -29.5q106 -24 178 -64zM288 588q153 30 241 65q65 24 93 51l9 9
q-10 14 -35 27q-49 26 -132 46q-92 21 -193 28zM301 410l16 -209q99 36 190 84q75 41 108 72l8 8q-3 3 -7 4q-30 17 -97 30q-115 20 -218 11zM634 357q0 1 -1 1zM632 376v1v-1z" />
    <glyph glyph-name="c" unicode="c" horiz-adv-x="1016" 
d="M870 860q-123 128 -388 115q-284 -14 -379 -209q-69 -140 -19 -334q39 -149 119 -243q128 -149 338 -149q104 0 188.5 33.5t132.5 84.5t73 104t25 100h-176q0 -3 -1 -8q-7 -17 -8 -19q-12 -27 -37 -52q-69 -67 -197 -67q-130 0 -204 87q-56 66 -83 173q-33 131 7 213
q50 102 229 110q187 9 253 -61q39 -40 41 -115l176 6q-5 144 -90 231z" />
    <glyph glyph-name="d" unicode="d" horiz-adv-x="936" 
d="M89 990l92 -3q178 -6 347 -92q239 -118 330 -344q59 -144 -14 -262q-57 -90 -191 -150q-101 -44 -227.5 -65t-239.5 -23l-88 -2zM267 800l5 -569q187 16 311 70q81 35 112 81q25 43 0 103q-66 164 -245 253q-82 42 -183 62z" />
    <glyph glyph-name="e" unicode="e" horiz-adv-x="760" 
d="M170 997l-82 -88v-821l91 -88l560 16l-6 176l-469 -13v220l460 22l-8 176l-452 -22v251l462 30l-12 176z" />
    <glyph glyph-name="f" unicode="f" horiz-adv-x="744" 
d="M72 913l71 -920l176 14l-30 389h423v176h-437l-20 260h457v176h-552z" />
    <glyph glyph-name="g" unicode="g" horiz-adv-x="912" 
d="M845 825q-45 85 -107 127q-106 75 -285 72q-107 -2 -181.5 -27t-121.5 -101q-43 -69 -57 -184q-13 -95 -13 -274q0 -357 195 -452q83 -41 195 -32q83 7 190 38q106 30 157 108q42 64 42 154q0 84 -39 195q-1 4 -4 14l-19 63h-323v-176h193q16 -55 16 -96q0 -38 -13 -57
q-15 -24 -58 -36q-97 -27 -155 -31q-64 -6 -105 14q-96 48 -96 294q0 166 11 251q12 80 32 115q13 22 44.5 32.5t112.5 11.5q122 1 181 -40q27 -19 53 -66l156 82z" />
    <glyph glyph-name="h" unicode="h" horiz-adv-x="960" 
d="M611 611l-310 -9l-37 465l-175 -14l87 -1096l175 14l-36 456l318 9l57 -469l175 21l-133 1080l-174 -22z" />
    <glyph glyph-name="i" unicode="i" horiz-adv-x="368" 
d="M131 26l176 9l-51 961l-176 -9z" />
    <glyph glyph-name="j" unicode="j" horiz-adv-x="968" 
d="M736 396q-3 -136 -49 -190q-44 -52 -148 -32q-151 28 -229 62q-53 23 -62 41q-1 0 -1 2q0 5 5 19q11 31 55 90l-142 104q-59 -83 -77 -131q-36 -93 5 -168q38 -70 147 -119q99 -42 266 -73q205 -40 316 92q84 102 90 299q6 279 -129 662l-166 -60q52 -144 87 -306.5
t32 -291.5z" />
    <glyph glyph-name="k" unicode="k" horiz-adv-x="1080" 
d="M286 602l-14 405l-176 -6l36 -1032l176 6l-12 330l612 -357l88 152l-608 356l527 483l-118 130z" />
    <glyph glyph-name="l" unicode="l" horiz-adv-x="928" 
d="M86 1088l55 -1121l768 75l-17 176l-585 -58l-45 936z" />
    <glyph glyph-name="m" unicode="m" horiz-adv-x="1304" 
d="M88 952v-591h176v294l340 -523l158 21l146 466l150 -639l172 40l-224 952l-169 6l-187 -594l-400 616z" />
    <glyph glyph-name="n" unicode="n" horiz-adv-x="1088" 
d="M96 1022l27 -1024l176 4l-19 740l553 -762l159 54l-31 993l-176 -6l22 -706l-552 761z" />
    <glyph glyph-name="o" unicode="o" horiz-adv-x="1176" 
d="M191 866q128 158 383 158q252 0 377 -111q145 -128 153 -418q8 -287 -146 -403q-67 -49 -150.5 -65t-189.5 -16q-226 0 -363 85q-189 118 -183 370q5 260 119 400zM327 755q-75 -92 -79 -293q-3 -152 101 -217q93 -58 269 -58q174 0 234 46q81 59 76 257q-6 215 -93 291
q-76 67 -261 67q-171 0 -247 -93z" />
    <glyph glyph-name="p" unicode="p" horiz-adv-x="840" 
d="M286 325q26 -146 70 -301l-169 -48q-46 159 -77.5 337.5t-29.5 322.5q4 193 72 285q52 67 127 82q74 16 162 -18q182 -69 269 -171q97 -118 54 -244q-39 -114 -183 -180q-123 -56 -295 -65zM262 501q148 4 246 49q76 36 89 78q13 30 -23 73q-55 68 -195 119
q-42 15 -64 11q-13 -4 -22 -15q-36 -48 -37 -182q0 -64 6 -133z" />
    <glyph glyph-name="q" unicode="q" horiz-adv-x="1144" 
d="M870 122q-103 -58 -251 -82q-266 -44 -406 36q-141 81 -141 261q0 127 75 295q55 126 150 263l6 8q52 58 119.5 83.5t131.5 21.5t130 -30q90 -36 170.5 -107t135.5 -159q38 -61 58.5 -125t23.5 -137t-26 -138q-14 -35 -38 -70q53 -30 92 -30v-176q-87 0 -183 55
q-20 11 -47 31zM728 249q-100 107 -171 225l150 92q67 -112 164 -212q7 12 12 24q20 48 9 111.5t-52 129.5q-40 66 -99.5 118.5t-121.5 76.5q-116 46 -181 -25q-78 -112 -131 -228q-59 -136 -59 -224q0 -79 53 -109q84 -48 290 -15q74 12 137 36z" />
    <glyph glyph-name="r" unicode="r" horiz-adv-x="880" 
d="M448 408l326 -281l-116 -133l-385 334l5 -327l-176 -2l-14 896l59 84q153 53 319 18q165 -34 246 -137q49 -63 49 -136q-1 -77 -56 -146q-78 -96 -257 -170zM265 828l4 -264l28 -24q208 70 270 148q18 22 18 37q0 11 -11 26q-40 51 -145 74q-83 18 -164 3z" />
    <glyph glyph-name="s" unicode="s" horiz-adv-x="784" 
d="M305 963q-105 -41 -162 -114q-70 -93 -53 -214q12 -77 53 -129q38 -48 99 -74q67 -27 195 -29h6q63 -2 77 -4q28 -3 41 -9l4 -3q5 -11 2 -42q-9 -75 -47 -111q-30 -30 -88 -39q-113 -17 -254 43l-68 -162q75 -33 168 -50.5t179 -4.5q113 16 186 86q83 81 99 218
q8 79 -16 133q-27 60 -86 89q-41 21 -100 27q-18 2 -91 5h-2q-104 2 -139 16q-18 8 -27 19q-13 18 -16 46q-8 48 18 81q26 34 87 59q119 47 280 39l8 176q-201 9 -353 -52z" />
    <glyph glyph-name="t" unicode="t" horiz-adv-x="800" 
d="M496 870v-870h-176v853l-264 -25l-16 176l720 68l16 -176z" />
    <glyph glyph-name="u" unicode="u" horiz-adv-x="968" 
d="M113 960q-11 -79 -16 -124t-11.5 -120.5t-6 -142t7.5 -126.5q23 -178 105 -288q103 -135 291 -165q203 -33 315 99q85 100 104 292q19 198 -40 574q-1 11 -5 33l-174 -27q1 -5 2.5 -15.5t2.5 -15.5q8 -51 12.5 -80.5t11.5 -83.5t10.5 -94.5t7 -90.5t2.5 -96t-5 -87
q-13 -136 -63 -195q-48 -57 -153 -40q-118 20 -179 99q-55 73 -70 202q-6 52 -6.5 109t5.5 124.5t11 110.5t15 119l5.5 44t4.5 38l-174 22q-1 -10 -4.5 -35.5t-5.5 -39.5z" />
    <glyph glyph-name="v" unicode="v" horiz-adv-x="1088" 
d="M584 31q20 13 39 34q29 34 62 89q55 91 128 256q115 260 230 585l-166 58q-115 -327 -225 -572q-66 -150 -118 -237q-4 -6 -10 -16t-7 -11q-3 6 -11 20q-44 84 -98 236q-94 256 -179 574l-170 -46q84 -315 183 -589q63 -169 108 -257q33 -60 58 -89q17 -22 39 -37
q35 -22 71 -21q33 1 66 23z" />
    <glyph glyph-name="w" unicode="w" horiz-adv-x="1528" 
d="M1469 991l-170 50l-246 -850l-281 485l-154 -3l-232 -437l-139 795l-174 -30l184 -1048l165 -26l277 523l305 -526l161 19z" />
    <glyph glyph-name="x" unicode="x" horiz-adv-x="840" 
d="M242 35q108 245 176 369q121 -214 159 -420l174 32q-51 271 -230 560q142 211 292 300l-90 152q-162 -97 -308 -296q-109 147 -240 282l-126 -124q142 -144 263 -316q-1 -1 -2.5 -4t-2.5 -4q-91 -154 -226 -460q-12 -24 -21 -48l160 -71q14 32 22 48z" />
    <glyph glyph-name="y" unicode="y" 
d="M603 677q-169 -4 -270 122q-41 52 -64.5 115t-28.5 116l-176 -18q21 -181 131 -322q136 -173 357 -188v-1q-56 -135 -146 -206q-103 -83 -253 -87l5 -176q208 6 358 125q127 102 198 276q58 141 75.5 302t4.5 298l-175 -18q16 -167 -16 -338z" />
    <glyph glyph-name="z" unicode="z" horiz-adv-x="1120" 
d="M580 807q-217 -49 -474 -156l-68 162q282 116 503 166q150 33 242 28q64 -4 108 -27q63 -34 78 -101q14 -66 -22 -140q-24 -53 -77 -120q-75 -94 -229 -236q-19 -19 -54 -50.5t-43 -39.5q-88 -80 -116 -107q81 6 142 14q207 24 485 78l34 -172q-275 -55 -498 -81
q-143 -17 -226 -17q-50 0 -86 7q-27 6 -45 17q-38 22 -50 59q-13 39 6 83q11 23 29 45q29 37 78 85q36 35 132 123q62 56 92 85q147 136 211 217q42 52 56 84q5 11 6 16q-10 2 -21 2q-71 5 -193 -24zM314 188z" />
    <glyph glyph-name="iacute" unicode="&#xed;" horiz-adv-x="472" 
d="M426 1361l-124 126l-244 -240l124 -126zM304 1002l-176 -4l28 -996l176 4z" />
    <glyph glyph-name="ccaron" unicode="&#x10d;" horiz-adv-x="944" 
d="M556 1169h-77l-310 152l78 158l271 -133l276 133l76 -158zM916 936l-56 -167q-100 34 -207 47.5t-219 -1.5q-98 -20 -148 -74q-57 -66 -54 -185q4 -167 68 -252q49 -67 142 -91q44 -11 96 -13.5t109.5 5t98 15t99.5 20.5l38 -172l-4 -1q-63 -14 -103 -21t-111.5 -16
t-138.5 -6t-127 18q-155 39 -241 157q-96 129 -102 353q-4 190 99 306q90 100 246 129q84 18 182.5 12t179 -22t153.5 -41z" />
    <glyph glyph-name="scaron" unicode="&#x161;" horiz-adv-x="800" 
d="M154 1311l100 146l152 -105l142 103l104 -142l-192 -140l-102 -2zM728 996l-40 -171q-175 40 -308 14q-67 -14 -96 -43q-28 -28 -23 -80q5 -65 51 -94q35 -22 149 -48q1 0 3 -1t3 -1q130 -28 188 -73q53 -39 75 -102q20 -62 7 -142q-22 -130 -123 -195q-80 -50 -200 -52
q-90 0 -185 25.5t-164 59.5l78 158q53 -26 128 -46.5t142 -20.5q70 1 106 25q35 21 44 75q6 38 0 57q-4 9 -14 18q-27 21 -127 43q-2 0 -5 1t-4 1q-134 31 -194 68q-122 77 -134 230q-10 132 74 218q67 67 186 91q171 34 383 -15z" />
    <glyph glyph-name="zcaron" unicode="&#x17e;" 
d="M438 1199h-69l-292 128l70 162l257 -113l265 113l70 -162zM52 844l-8 176l681 28l77 -137l-499 -737l522 42l14 -176l-704 -56l-80 137l503 744z" />
    <glyph glyph-name="uni401" unicode="&#x401;" horiz-adv-x="824" 
d="M151 1112h176v184h-176v-184zM479 1112h176v184h-176v-184zM106 985l33 -529l28 -416l596 -63l18 174l-448 49l-12 173h299v176h-311l-15 244l407 -33l14 176z" />
    <glyph glyph-name="uni410" unicode="&#x410;" horiz-adv-x="896" 
d="M318 1044l169 9l352 -1020l-166 -58l-80 231l-282 49l-65 -271l-172 40zM352 427l176 -31l-109 314z" />
    <glyph glyph-name="uni411" unicode="&#x411;" horiz-adv-x="896" 
d="M187 1003l536 29l10 -176l-448 -24l12 -215q138 34 252 5q94 -24 157 -88q71 -72 90 -189q20 -126 -49 -216q-55 -73 -162 -113q-155 -55 -354 -36l-79 83l-48 847zM306 457l17 -305q120 0 202 30q58 21 82 53q24 29 15 82q-10 61 -42 95q-27 27 -73 39q-90 23 -195 -13z
" />
    <glyph glyph-name="uni412" unicode="&#x412;" horiz-adv-x="784" 
d="M641 583q8 -5 22 -17q81 -69 95 -195q12 -128 -50 -214q-55 -73 -160 -104q-132 -38 -351 -7l-69 10l-86 891l61 24q177 72 314 77q103 4 172 -36q92 -52 110 -163q23 -142 -34 -234q-9 -15 -24 -32zM230 831l21 -221q28 8 75 19q2 0 8 1.5t9 2.5q80 17 108 29
q46 18 64 45q23 39 10 114q-5 28 -22 38q-25 14 -80 13q-78 -3 -193 -41zM269 425l21 -213q133 -12 209 10q48 14 67 40q23 31 17 91q-6 57 -34 79q-25 22 -75 26q-90 9 -205 -33z" />
    <glyph glyph-name="uni413" unicode="&#x413;" horiz-adv-x="928" 
d="M117 152q-14 292 -14 411q0 167 15 268q11 65 28 103q32 71 94 86q94 20 304 24q212 5 344 -8l-16 -175q-131 11 -324 8q-168 -5 -245 -17q-7 -17 -11 -48q-13 -87 -13 -240q0 -130 13 -397q6 -123 7 -163l-176 -6q-2 69 -6 154zM309 866q-1 0 -1 -1z" />
    <glyph glyph-name="uni414" unicode="&#x414;" horiz-adv-x="1416" 
d="M179 963l87 101h580l88 -78l82 -753l269 10l91 -88v-261h-176v169l-961 -36l26 -110l-171 -42l-52 216l83 108l170 7zM472 212l368 14l-73 662h-398z" />
    <glyph glyph-name="uni415" unicode="&#x415;" horiz-adv-x="752" 
d="M266 806l15 -245l250 33l23 -174l-261 -35l11 -172l397 23l10 -176l-570 -33l-30 429l-32 517l593 27l8 -176z" />
    <glyph glyph-name="uni416" unicode="&#x416;" horiz-adv-x="1520" 
d="M614 267l30 -390l176 14l-35 439l477 -375l108 138l-492 387l561 451l-110 138l-566 -456l-35 446l-176 -14l26 -329l-388 305l-108 -138l514 -404l-515 -414l110 -138z" />
    <glyph glyph-name="uni417" unicode="&#x417;" horiz-adv-x="816" 
d="M597 1014q-73 43 -179 57q-156 23 -352 -9l28 -174q166 28 299 9q73 -10 114 -34q34 -20 40 -46q18 -77 -28 -132q-35 -41 -93 -64q-107 4 -215 -32l56 -167q88 29 164 23q56 -6 83 -29q30 -28 30 -90q2 -102 -149 -159q-136 -51 -313 -47l-4 -176q212 -4 379 59
q52 19 95.5 46t83 65.5t62 93t22.5 119.5q-2 142 -89 220q8 8 22 24q105 124 65 287q-25 100 -121 156z" />
    <glyph glyph-name="uni418" unicode="&#x418;" horiz-adv-x="1088" 
d="M992 1022l-27 -1024l-176 4l19 740l-553 -762l-159 54l31 993l176 -6l-22 -706l552 761z" />
    <glyph glyph-name="uni419" unicode="&#x419;" horiz-adv-x="1088" 
d="M217 1352l158 80q26 -53 72 -101t100 -70q59 -24 125 -10q82 19 173 102l118 -130q-125 -114 -252 -143q-117 -28 -229 17q-90 36 -158 107t-107 148zM881 1000q-35 -74 -57 -119q-140 -300 -225 -445q-81 -139 -145 -202q-21 -21 -38.5 -32.5t-23.5 -11.5l-7 -1
q-28 8 -51 63q-31 72 -39 194q-7 122 13 253t61 229l-162 67q-50 -118 -72.5 -269t-14.5 -290q8 -151 52 -254q60 -136 171 -163q116 -29 235 90q81 81 173 238q44 75 92 168l-33 -509l175 -12l63 962z" />
    <glyph glyph-name="uni41A" unicode="&#x41a;" horiz-adv-x="1080" 
d="M286 602l-14 405l-176 -6l36 -1032l176 6l-12 330l612 -357l88 152l-608 356l527 483l-118 130z" />
    <glyph glyph-name="uni41B" unicode="&#x41b;" horiz-adv-x="1104" 
d="M1048 20l-160 -72l-378 833l-258 -799l-168 54l328 1015l164 9z" />
    <glyph glyph-name="uni41C" unicode="&#x41c;" horiz-adv-x="1280" 
d="M988 720v-720h176v992l-159 52l-402 -556l-327 549l-164 -45v-992h176v673l232 -390l147 -7z" />
    <glyph glyph-name="uni41D" unicode="&#x41d;" horiz-adv-x="936" 
d="M88 1029l34 -1048l176 6l-14 435l375 12l15 -436l176 5l-35 1048l-176 -6l15 -435l-376 -12l-14 436z" />
    <glyph glyph-name="uni41E" unicode="&#x41e;" horiz-adv-x="1024" 
d="M190 895q121 142 327 137q97 -3 170.5 -23.5t131.5 -79.5q59 -59 94 -156t54 -243q40 -303 -99 -441q-119 -118 -363 -103q-190 10 -300 142q-109 129 -123 374q-15 248 108 393zM324 781q-78 -92 -67 -269q12 -188 83 -272q60 -72 175 -79q166 -9 229 53q78 76 48 292
q-30 232 -98 300q-25 25 -66 36.5t-116 13.5q-121 3 -188 -75z" />
    <glyph glyph-name="uni41F" unicode="&#x41f;" horiz-adv-x="1024" 
d="M265 844l434 24l77 -859l176 16l-85 943l-92 80l-612 -33l-83 -97l100 -951l175 18z" />
    <glyph glyph-name="uni420" unicode="&#x420;" horiz-adv-x="872" 
d="M284 357l22 -352l-176 -10l-58 949l72 92q218 41 392 3q119 -25 189 -90q89 -84 83 -214q-7 -119 -73.5 -198t-164.5 -123q-130 -57 -286 -57zM253 874l21 -341q123 -2 225 42q126 56 133 170q2 47 -27 75q-35 31 -106 47q-108 23 -246 7z" />
    <glyph glyph-name="uni421" unicode="&#x421;" horiz-adv-x="904" 
d="M330 943q-128 -48 -197 -159q-72 -118 -69 -300q4 -184 120 -298q93 -91 248 -127q117 -27 251 -16q122 10 182 43l-82 155q-34 -15 -115 -23q-102 -9 -197 13q-107 24 -163 81q-65 64 -68 176q-3 130 43 204q35 57 110 87q122 46 398 15l20 175q-317 37 -481 -26z" />
    <glyph glyph-name="uni422" unicode="&#x422;" horiz-adv-x="864" 
d="M528 827v-827h-176v819l-284 -13l-8 175l752 35l8 -176z" />
    <glyph glyph-name="uni423" unicode="&#x423;" 
d="M603 677q-169 -4 -270 122q-41 52 -64.5 115t-28.5 116l-176 -18q21 -181 131 -322q136 -173 357 -188v-1q-56 -135 -146 -206q-103 -83 -253 -87l5 -176q208 6 358 125q127 102 198 276q58 141 75.5 302t4.5 298l-175 -18q16 -167 -16 -338z" />
    <glyph glyph-name="uni424" unicode="&#x424;" horiz-adv-x="1256" 
d="M720 295l21 -313l-176 -12l-21 313q-251 -3 -375 82q-81 57 -104 143q-21 78 7 163q47 146 199 264q158 121 316 121q171 0 345 -92q177 -94 247 -220q44 -78 36 -157q-10 -87 -84 -151q-120 -106 -411 -141zM533 459l-27 406q-64 -21 -128 -70q-107 -83 -139 -178
q-11 -37 -4 -63q5 -24 34 -44q77 -52 264 -51zM708 471q230 29 307 96q23 22 25 41q2 21 -14 50q-47 83 -176 150q-81 43 -168 62z" />
    <glyph glyph-name="uni425" unicode="&#x425;" horiz-adv-x="992" 
d="M392 510l-325 412l138 108l293 -371l278 392l144 -102l-309 -434l338 -429l-138 -108l-306 388l-273 -385l-144 102z" />
    <glyph glyph-name="uni426" unicode="&#x426;" horiz-adv-x="1280" 
d="M823 225l-115 819l175 25l116 -831l138 8l88 -117l-91 -254l-166 59l46 129l-85 -5l-668 -60l-95 80l-94 988l175 16l86 -901z" />
    <glyph glyph-name="uni427" unicode="&#x427;" horiz-adv-x="944" 
d="M130 599q46 -134 127 -195q106 -81 249 -32q97 32 170 97l-11 -467l176 -4l23 988l-176 4q-5 -162 -39 -255q-55 -147 -199 -197q-54 -18 -87 6q-37 28 -66 111q-53 160 -39 388l-175 10q-7 -107 3.5 -230t43.5 -224z" />
    <glyph glyph-name="uni428" unicode="&#x428;" horiz-adv-x="1576" 
d="M1277 1015l-170 -46l170 -631l-420 -57l-82 493l-174 -28l81 -488l-347 -47l-79 790l-176 -18l97 -970l1322 177z" />
    <glyph glyph-name="uni429" unicode="&#x429;" horiz-adv-x="1816" 
d="M172 1126l-66 -984l1245 -22h108l-164 -141l114 -134l344 296l-57 155h-261l-47 757l-176 -10l46 -745l-430 7l20 387l-176 8l-20 -392l-358 6l54 800z" />
    <glyph glyph-name="uni42A" unicode="&#x42a;" horiz-adv-x="1096" 
d="M562 1041l-57 -447q334 -120 450 -230q72 -66 77 -143q4 -78 -63 -139q-45 -41 -123 -72q-59 -24 -153 -47q-149 -35 -346 -51l-108 -8l119 927l-297 -46l-26 174zM482 415l-41 -317q117 14 212 36q76 19 127 39q53 22 70 39q3 2 3 3q-3 6 -18 21q-85 80 -353 179z
M857 220v-1v1z" />
    <glyph glyph-name="uni42B" unicode="&#x42b;" horiz-adv-x="1440" 
d="M91 357q-16 117 -9.5 261t23.5 264.5t42 232.5l172 -38q-53 -235 -62 -468q214 30 385 -29t244 -181q41 -65 39 -142t-50 -145q-93 -128 -326 -180q-104 -25 -191 2q-84 24 -145 95q-95 111 -122 328zM260 431q1 -18 5 -52q21 -166 81 -235q29 -32 62 -42q43 -12 102 1
q169 38 222 112q32 43 3 93q-41 69 -168 111t-307 12zM1359 974l-174 20l-121 -1064l175 -20z" />
    <glyph glyph-name="uni42C" unicode="&#x42c;" horiz-adv-x="1008" 
d="M106 33l66 1047l176 -12l-27 -421q370 -38 517 -155q85 -67 96 -157q9 -83 -47 -162q-90 -126 -298 -196q-211 -71 -410 -37q-33 6 -54 32.5t-19 60.5zM310 471l-23 -365q124 -3 245 38q156 53 211 132q16 22 16 40q-5 18 -30 38q-103 84 -419 117z" />
    <glyph glyph-name="uni42D" unicode="&#x42d;" horiz-adv-x="864" 
d="M465 766q103 -91 137 -194l-381 24l-12 -175l390 -25q-19 -48 -58.5 -91.5t-105 -85.5t-168 -76.5t-233.5 -55.5l28 -174q349 57 537 206t193 356q3 116 -54 226t-158 198q-102 87 -236.5 143t-287.5 70l-16 -176q127 -12 236.5 -57t188.5 -113z" />
    <glyph glyph-name="uni42E" unicode="&#x42e;" horiz-adv-x="1600" 
d="M113 1027l176 -6l-17 -440l187 -26q39 213 236 343q91 59 197.5 90.5t201.5 37.5h3h2q132 0 224.5 -61t146.5 -161q82 -150 82 -348q0 -206 -106 -352q-150 -208 -467 -208q-320 0 -449 205q-66 106 -78 278l-187 25l-17 -423l-176 6zM1102 850q-176 -12 -311 -100
q-165 -107 -165 -294q0 -176 53 -262q77 -122 300 -122q228 0 325 135q72 99 72 249q0 153 -60 263q-72 130 -214 131z" />
    <glyph glyph-name="uni42F" unicode="&#x42f;" horiz-adv-x="832" 
d="M585 295l-396 -298l-106 140l272 205q-23 6 -45 15q-107 40 -167 122q-71 96 -62 229q9 137 92 215q69 67 185 83q86 11 180.5 -6.5t171.5 -48.5l53 -20l3 -57q3 -89 -0.5 -395t-20.5 -482l-175 16q10 111 15 282zM591 807q-121 36 -210 24q-56 -7 -87 -35
q-33 -33 -37 -99q-4 -70 28 -114q29 -40 87 -62q52 -20 116 -21.5t102 10.5q1 122 1 297z" />
    <glyph glyph-name="enspace" unicode="&#x2002;" horiz-adv-x="1024" 
 />
    <glyph glyph-name="emspace" unicode="&#x2003;" horiz-adv-x="2048" 
 />
    <glyph glyph-name="thirdemspace" unicode="&#x2004;" horiz-adv-x="680" 
 />
    <glyph glyph-name="quarteremspace" unicode="&#x2005;" horiz-adv-x="512" 
 />
    <glyph glyph-name="sixthemspace" unicode="&#x2006;" horiz-adv-x="344" 
 />
    <glyph glyph-name="figurespace" unicode="&#x2007;" horiz-adv-x="512" 
 />
    <glyph glyph-name="punctuationspace" unicode="&#x2008;" horiz-adv-x="256" 
 />
    <glyph glyph-name="thinspace" unicode="&#x2009;" horiz-adv-x="128" 
 />
    <glyph glyph-name="hairspace" unicode="&#x200a;" horiz-adv-x="64" 
 />
    <glyph glyph-name="emdash" unicode="&#x2014;" horiz-adv-x="912" 
d="M896 312v176l-864 -4v-176z" />
    <glyph glyph-name="bullet" unicode="&#x2022;" horiz-adv-x="912" 
d="M256 200h416v408h-416v-408z" />
    <glyph glyph-name="uni2190" unicode="&#x2190;" horiz-adv-x="1288" 
d="M348 392h920v176h-902l348 275l-108 138l-548 -432l-4 -135l548 -476l116 132z" />
    <glyph glyph-name="uni2192" unicode="&#x2192;" horiz-adv-x="1288" 
d="M960 392h-920v176h902l-348 275l108 138l548 -432l4 -135l-548 -476l-116 132z" />
  </font>
</defs>
</svg>
